<svg width="13" height="13" viewBox="0 0 13 13" fill="none" xmlns="http://www.w3.org/2000/svg">
<path d="M4.87504 0C4.73138 0 4.59361 0.0570684 4.49202 0.158651C4.39044 0.260233 4.33337 0.398008 4.33337 0.541667C4.33337 0.685326 4.39044 0.823101 4.49202 0.924683C4.59361 1.02627 4.73138 1.08333 4.87504 1.08333H11.9167V8.125C11.9167 8.26866 11.9738 8.40644 12.0754 8.50802C12.1769 8.6096 12.3147 8.66667 12.4584 8.66667C12.602 8.66667 12.7398 8.6096 12.8414 8.50802C12.943 8.40644 13 8.26866 13 8.125V0.541667C13 0.398012 12.943 0.260245 12.8414 0.158666C12.7398 0.0570873 12.602 1.43633e-05 12.4584 0H4.87504Z" fill="#F5FFFD"/>
<path d="M11.5337 0.700359L0.163981 12.0701L0.158689 12.0754C0.0571073 12.1769 2.59955e-05 12.3147 0 12.4583C0 12.602 0.0570684 12.7398 0.158651 12.8414C0.260233 12.9429 0.398008 13 0.541667 13C0.685317 13 0.823077 12.9429 0.924642 12.8413L12.2996 1.46631L11.5337 0.700359Z" fill="#F5FFFD"/>
</svg>
