<svg width="123" height="51" viewBox="0 0 123 51" fill="none" xmlns="http://www.w3.org/2000/svg">
<g clip-path="url(#clip0_1_256)">
<path d="M17.2454 9.60139C16.4518 9.58215 15.8143 8.93516 15.8143 8.13905C15.8143 7.34295 16.4518 6.69596 17.2454 6.67672C19.0877 6.67672 20.5838 5.18071 20.5838 3.33836C20.5838 1.49601 19.0901 0 17.2454 0C12.7358 0 9.0799 3.62698 9.0799 8.13665C9.0799 12.6463 12.7358 16.2733 17.2454 16.2733C19.0877 16.2733 20.5838 14.7797 20.5838 12.935C20.5838 11.0902 19.0901 9.59657 17.2454 9.59657V9.60139Z" fill="#59D35A"/>
<path fill-rule="evenodd" clip-rule="evenodd" d="M31.8261 22.0829C30.3879 19.2616 27.9033 18.1216 26.8114 17.8425C24.2043 17.1836 22.8814 17.5467 21.2362 17.857C20.4859 17.9989 18.2514 19.0284 16.1325 19.0235C14.0136 19.0187 12.1279 17.9893 11.4232 17.857C9.77809 17.5467 8.45525 17.1836 5.84806 17.8425C4.75611 18.1216 2.2716 19.2616 0.833306 22.0829C-1.15095 25.9745 0.847732 29.0674 2.2788 35.797C3.20238 39.3977 3.04606 42.5027 5.25398 45.5115C7.46192 48.5204 10.7281 50.1006 15.9353 50.2016C16.224 50.2064 16.4668 50.2064 16.7217 50.2016C21.9289 50.1006 25.1952 48.5204 27.4031 45.5115C29.611 42.5027 29.4547 39.3977 30.3782 35.797C31.8093 29.0674 33.8081 25.9745 31.8237 22.0829H31.8261Z" fill="#FF7500"/>
<path d="M96.2865 39.791V18.0756H86.9811V23.5625H89.447V39.233C89.447 42.302 88.1443 44.1619 85.7714 44.4875L85.818 49.3699C86.3762 49.4164 86.9345 49.4629 87.5395 49.4629C92.8435 49.4629 96.2865 45.6499 96.2865 39.791ZM122.342 41.4185H115.688V37.0475H115.223C113.967 39.977 111.129 41.8369 107.732 41.8369C103.173 41.8369 100.055 38.4425 100.055 33.188V18.1222H106.941V31.9326C106.941 34.769 108.523 36.5825 111.129 36.5825C113.734 36.5825 115.502 34.676 115.502 31.7465V18.1222H122.342V41.4185ZM78.2805 41.4185V37.5125H77.8618C76.8382 40.1164 74.2326 41.8369 70.9292 41.8369C66.6487 41.8369 64.1362 38.954 64.1362 35.141C64.1362 31.8396 66.0438 29.468 71.3479 28.4916L75.3027 27.7475C77.3035 27.3755 78.0479 26.6781 78.0479 25.4226C78.0479 23.8881 76.9312 22.9581 74.6979 22.9581C72.3716 22.9581 71.0688 23.9811 70.9292 25.8876L70.8826 26.4456H64.3689L64.4154 25.8876C64.8342 20.8656 68.789 17.7036 75.1632 17.7036C81.7236 17.7036 84.9339 21.0981 84.9339 26.3061V41.4185H78.2805ZM78.0479 33.0485V30.6771C77.4895 31.0955 76.6055 31.4675 75.582 31.7L73.5348 32.2116C71.7202 32.63 71.0688 33.4205 71.0688 34.676C71.0688 36.35 72.232 37.28 74.1861 37.28C76.466 37.28 78.0479 36.0246 78.0479 33.0485ZM62.1822 32.9555H55.203C55.0169 34.9085 53.342 36.257 51.1086 36.257C48.0379 36.257 46.0371 33.6995 46.0371 29.747C46.0371 25.7946 48.0379 23.2836 51.1086 23.2836C53.2954 23.2836 54.9239 24.5856 55.11 26.4456H62.0426C61.6238 21.0981 57.2968 17.6571 51.0621 17.6571C43.7108 17.6571 39.0582 22.4931 39.1046 29.84C39.1046 37.187 43.7108 41.8369 50.9691 41.8369C57.2968 41.8369 61.7633 38.3495 62.1822 32.9555ZM92.3783 15.6576C94.8907 15.6576 96.6122 13.9372 96.6122 11.3797C96.6122 8.86869 94.8907 7.14819 92.3783 7.14819C89.8193 7.14819 88.0978 8.86869 88.0978 11.3797C88.0978 13.9372 89.8193 15.6576 92.3783 15.6576Z" fill="#E80537"/>
</g>
<defs>
<clipPath id="clip0_1_256">
<rect width="123" height="50.2041" fill="white"/>
</clipPath>
</defs>
</svg>
