<svg width="176" height="46" viewBox="0 0 176 46" fill="none" xmlns="http://www.w3.org/2000/svg">
<path fill-rule="evenodd" clip-rule="evenodd" d="M59.9132 17.8497C62.6392 17.8497 64.9123 20.1228 64.9123 22.9992C64.9123 25.8791 62.6392 28.1505 59.761 28.1505H52.9452C50.0688 28.1505 47.7957 25.8791 47.7957 22.9992C47.7957 20.1228 50.0688 17.8497 52.9452 17.8497H59.9132Z" fill="#FE9007"/>
<path fill-rule="evenodd" clip-rule="evenodd" d="M128.372 39.5086C128.372 42.3886 126.1 44.6581 123.222 44.6581C120.496 44.6581 118.073 42.3886 118.073 39.5086V6.49241C118.073 3.61428 120.496 1.34113 123.222 1.34113C126.1 1.34113 128.372 3.61428 128.372 6.34027V39.5086ZM162.904 4.22033C164.418 4.97567 165.478 6.64205 165.478 8.61271C165.478 11.4891 163.207 13.7622 160.481 13.7622C159.421 13.7622 158.512 13.4579 157.755 13.0051C156.088 12.094 154.119 11.4891 152.151 11.4891C145.789 11.4891 140.64 16.6403 140.64 22.9998C140.64 29.3593 145.789 34.5123 152.151 34.5123C156.695 34.5123 160.481 31.7863 162.45 28.1511H152.151C149.272 28.1511 147.001 25.7258 147.001 22.9998C147.001 20.1217 149.272 17.8485 152.151 17.8485H168.66C171.539 17.8485 173.808 20.1217 173.808 22.9998C173.808 34.9652 164.114 44.6574 152.151 44.6574C140.185 44.6574 130.493 34.9652 130.493 22.9998C130.493 11.0362 140.185 1.3422 152.151 1.3422C156.088 1.3422 159.724 2.40181 162.904 4.22033ZM34.3157 4.52426C35.8299 5.42994 36.7392 7.09632 36.7392 8.91663C36.7392 11.7912 34.4678 14.0643 31.7418 14.0643C30.6822 14.0643 29.7729 13.7619 29.0158 13.1569C27.1973 12.0937 25.0781 11.4905 22.957 11.4905C16.5958 11.4905 11.4463 16.64 11.4463 22.9994C11.4463 29.3607 16.5958 34.512 22.957 34.512C28.1065 34.512 32.4989 31.0271 33.861 26.3322L40.3744 5.27959C40.9812 3.16036 42.95 1.79647 45.2214 1.79647H64.7598C67.6379 1.79647 69.9093 4.06784 69.9093 6.79383C69.9093 9.67196 67.6379 11.9451 64.7598 11.9451H50.5213C49.6138 11.9451 48.8549 12.5501 48.5542 13.309L43.7072 29.2103C40.9812 38.1472 32.6493 44.6588 22.957 44.6588C10.9917 44.6588 1.29944 34.9666 1.29944 22.9994C1.29944 11.0359 10.9917 1.34184 22.957 1.34184C27.0469 1.34184 30.9829 2.55538 34.3157 4.52426ZM64.0025 32.5426L72.483 4.97657C73.0897 2.85734 75.0586 1.34131 77.33 1.34131H77.7846H78.3914C80.6627 1.34131 82.6316 2.85734 83.2384 4.82622L89.145 23.9082L94.7473 4.97657C95.3541 2.85734 97.323 1.34131 99.7465 1.34131H100.201H100.808C103.077 1.34131 105.046 2.85734 105.653 4.82622L115.802 37.9946C115.952 38.4474 115.952 39.0542 115.952 39.5088C115.952 42.3887 113.679 44.6583 110.953 44.6583C108.682 44.6583 106.713 43.1459 106.108 41.0248L100.201 22.0932L94.4449 41.1752C93.8399 43.1459 91.871 44.6583 89.5996 44.6583H88.9929H88.5382C86.2669 44.6583 84.298 43.1459 83.6912 41.0248L77.9367 22.0932L72.3326 40.5684C71.5755 42.6912 69.757 44.2055 67.3353 44.2055H47.7969C45.0691 44.2055 42.7977 41.9323 42.7977 39.0542C42.7977 36.3282 45.0691 34.0568 47.7969 34.0568H62.0318C62.9429 34.0568 63.7 33.4501 64.0025 32.5426Z" fill="#015F3D"/>
</svg>
