<svg width="361" height="119" viewBox="0 0 361 119" fill="none" xmlns="http://www.w3.org/2000/svg">
<path d="M59.2987 0V94.2676C59.2987 102.204 56.887 108.134 52.4372 112.451C47.3225 117.419 37.3591 119.079 25.7064 118.734C23.7224 118.677 21.7958 118.522 19.0965 118.249C16.3936 117.972 12.4974 117.084 9.96339 116.588C7.42582 116.096 1.54195 114.759 0 114.097L3.32114 95.0045C10.8117 96.3344 17.9248 97.4558 22.928 97.4019C30.4221 97.4019 34.171 94.318 34.171 88.1465V0.00359781H59.2987V0Z" fill="#021713"/>
<path d="M96.9673 0.302002C102.808 0.302002 108.789 0.330757 114.903 0.381077C121.02 0.438586 127.026 0.603925 132.921 0.877092C138.816 1.15385 144.301 1.5672 149.369 2.11713L148.046 20.3007H106.715C103.739 20.3007 101.478 21.0159 99.9362 22.4501C98.3906 23.8842 97.6214 25.9761 97.6214 28.7329V118.777H72.3284V23.611C72.3284 16.559 74.5856 10.9088 79.1072 6.66751C83.6252 2.42624 89.5774 0.302002 96.9637 0.302002H96.9673ZM141.357 59.5432C141.357 61.556 140.972 63.4754 140.203 65.3085C139.434 67.1416 138.366 68.7087 137.011 70.0098C135.649 71.311 134.086 72.3461 132.31 73.1153C130.538 73.8844 128.586 74.2654 126.458 74.2654C122.436 74.2654 119.007 72.8457 116.172 70.0098C113.336 67.1703 111.916 63.6838 111.916 59.5468C111.916 55.4098 113.336 51.9197 116.172 49.0838C119.011 46.2479 122.436 44.8282 126.458 44.8282C128.586 44.8282 130.538 45.2127 132.31 45.9819C134.082 46.7511 135.649 47.8186 137.011 49.1773C138.37 50.5359 139.434 52.103 140.203 53.875C140.969 55.647 141.357 57.5412 141.357 59.5504V59.5432Z" fill="#021713"/>
<path d="M204.907 0.302002C213.943 0.302002 221.603 1.26887 227.886 3.19542C234.168 5.12556 239.211 8.32088 243.014 12.785C246.817 17.2491 249.599 23.3127 251.363 30.9685C253.125 38.6316 254.009 48.1924 254.009 59.651C254.009 71.1097 253.125 80.6741 251.363 88.3335C249.599 95.993 246.817 102.053 243.014 106.517C239.211 110.981 234.168 114.177 227.886 116.107C221.603 118.033 213.943 119 204.907 119C195.871 119 188.212 118.033 181.929 116.107C175.646 114.18 170.574 110.981 166.718 106.517C162.861 102.053 160.05 95.993 158.286 88.3335C156.521 80.6741 155.64 71.1168 155.64 59.651C155.64 48.1852 156.521 38.6316 158.286 30.9685C160.047 23.3091 162.857 17.2491 166.718 12.785C170.574 8.32448 175.646 5.12556 181.929 3.19542C188.212 1.26887 195.871 0.302002 204.907 0.302002ZM204.907 20.3079C199.063 20.3079 194.52 21.4652 191.267 23.78C188.014 26.0947 185.699 30.0879 184.323 35.7669C182.942 41.4423 182.256 49.4073 182.256 59.6546C182.256 69.902 182.942 77.7339 184.323 83.4597C185.699 89.1926 188.014 93.2146 191.267 95.5293C194.516 97.844 199.063 99.0014 204.907 99.0014C210.752 99.0014 215.129 97.844 218.379 95.5293C221.628 93.2146 223.943 89.1926 225.323 83.4597C226.699 77.7304 227.39 69.7941 227.39 59.6546C227.39 49.5151 226.699 41.4423 225.323 35.7669C223.943 30.0915 221.628 26.0983 218.379 23.78C215.126 21.4652 210.636 20.3079 204.907 20.3079Z" fill="#021713"/>
<path d="M305.206 66.9944L279.737 118.777H254.009L283.558 59.6513L254.113 0.302246H280.014L305.293 52.0781C307.819 57.3366 307.55 62.1529 305.21 66.9944H305.206Z" fill="#15E9BF"/>
<path d="M309.685 52.0167L335.154 0.233643H360.882L331.333 59.3598L360.778 118.709H335.255L309.595 66.933C307.068 61.6746 307.338 56.8582 309.678 52.0167H309.685Z" fill="#021713"/>
</svg>
