<svg width="88" height="66" viewBox="0 0 88 66" fill="none" xmlns="http://www.w3.org/2000/svg">
<g clip-path="url(#clip0_1_295)">
<path d="M32.3154 0H22.8672V66H32.3154V0Z" fill="#222222"/>
<path d="M87.1556 0H63.3983V7.94191H70.724V66H79.8983V7.94191H87.1556V0Z" fill="#222222"/>
<path d="M19.3755 0H0V66H9.17427V36.0809H16.9793V28.2075H9.17427V7.94191H19.3755V0Z" fill="#222222"/>
<path d="M56.6203 0H37.2448V66H45.4606V36.0809H55.5249C55.7988 40.9419 55.9357 45.9398 55.9357 50.9378C55.9357 53.471 56.0042 56.0042 56.0042 58.4689C56.0042 61.0021 56.0042 63.4668 56.0042 66H64.5622C64.5622 64.5622 64.5622 63.1245 64.5622 61.6867C64.5622 60.249 64.5622 58.8112 64.5622 57.305C64.5622 54.4295 64.4938 51.4855 64.4938 48.5415C64.4253 45.5975 64.3568 42.722 64.2884 39.778C64.1515 36.9025 64.0145 33.9585 63.8091 31.1515C63.6037 28.2759 63.3299 25.4689 62.9876 22.7303C62.6452 19.9917 62.166 17.2531 61.6183 14.6515C61.0705 12.0498 60.3859 9.44813 59.5643 6.9834C58.7427 4.58714 57.7842 2.25934 56.6203 0ZM45.4606 28.2075V7.94191H50.8008C52.9917 13.6245 54.2241 20.6079 54.9772 28.2075H45.4606Z" fill="#222222"/>
</g>
<defs>
<clipPath id="clip0_1_295">
<rect width="87.1556" height="66" fill="white"/>
</clipPath>
</defs>
</svg>
