<svg width="107" height="76" viewBox="0 0 107 76" fill="none" xmlns="http://www.w3.org/2000/svg">
<path d="M97.3002 64.1794C97.3829 64.1795 97.4455 64.2041 97.515 64.2576C97.5561 64.2892 97.5976 64.3298 97.64 64.3796L97.7719 64.5583L103.195 72.8699L103.199 72.8757C103.397 73.1729 103.627 73.5349 103.877 73.8113C104.143 74.1039 104.516 74.3973 105.041 74.45L105.045 74.4509L106.115 74.5505V74.8289H97.1146V74.5847L97.7709 74.5017C98.1404 74.4672 98.6855 74.3476 99.0248 73.9304C99.2251 73.6841 99.3193 73.3733 99.2826 73.0408C99.25 72.7454 99.1185 72.4743 98.9506 72.2322H98.9515L98.4633 71.4714L98.2455 71.1326H90.0072L89.7894 71.4685L89.1927 72.3933L89.1859 72.4031L89.1791 72.4148C88.9198 72.8481 88.834 73.3889 89.1361 73.8621C89.4058 74.2843 89.8676 74.4587 90.266 74.5017V74.5027H90.2709C90.2741 74.503 90.2774 74.5043 90.2806 74.5046V74.5037L90.974 74.5876V74.8289H84.6879V74.6023L85.7035 74.5046L85.7416 74.5007L85.7777 74.4939C86.2527 74.3986 86.5739 74.1353 86.7758 73.9128C86.875 73.8034 86.9504 73.6985 86.9994 73.6287C87.0555 73.5487 87.0591 73.5456 87.0443 73.5623L87.0844 73.5232L87.1302 73.448L91.1996 66.7605C91.4862 66.3126 91.5127 65.7994 91.2982 65.3699C91.0928 64.9586 90.6894 64.6728 90.2289 64.615L90.2201 64.614L90.2123 64.613L88.7572 64.4626V64.1794H97.3002ZM93.4213 65.6042L91.0873 69.3005L90.3744 70.4314H97.7845L97.0511 69.2947L94.6635 65.5984L94.0375 64.6287L93.4213 65.6042Z" fill="#000504" stroke="#000504" stroke-width="1.47359"/>
<path d="M77.0038 64.1793C79.6581 64.1793 81.452 64.8317 82.5693 65.7623C83.6739 66.6824 84.1904 67.9343 84.1904 69.3141C84.1903 70.9372 83.656 72.2789 82.5595 73.2272C81.4485 74.1878 79.6628 74.8287 77.0038 74.8287H65.8017V74.6305L66.7402 74.5016L66.7392 74.4996C67.2039 74.4423 67.5655 74.1951 67.7919 73.8483C68.0068 73.5191 68.081 73.1354 68.081 72.7926V66.2701C68.081 65.9101 68.0108 65.5042 67.7568 65.1559C67.4916 64.7923 67.1004 64.5921 66.662 64.5123L66.624 64.5045L66.5849 64.5026L65.8017 64.444V64.1793H77.0038ZM71.329 73.9645H75.1591C76.6481 73.9645 77.9384 73.8159 78.831 73.0934C79.771 72.3323 80.0743 71.1124 80.0742 69.5309C80.0741 67.9261 79.7727 66.6934 78.8349 65.9244C77.9412 65.1919 76.6475 65.0436 75.1591 65.0436H71.329V73.9645Z" fill="#000504" stroke="#000504" stroke-width="1.47359"/>
<path d="M8.97656 63.7443V64.0266L8.0127 64.1232L8.00391 64.1242C7.61172 64.168 7.21204 64.3328 6.92188 64.6926C6.64041 65.0416 6.53516 65.4843 6.53516 65.9435V68.5832H15.4971V65.9982C15.4971 65.6548 15.4548 65.2297 15.2461 64.8605C15.0111 64.4449 14.6107 64.1808 14.0938 64.1262L14.0947 64.1252L13.0557 63.9904V63.7443H21.2959V64.0246L20.2793 64.1232H20.2764C19.7915 64.1719 19.3907 64.4111 19.1406 64.8146C18.9156 65.1779 18.8535 65.6082 18.8535 65.9982V72.3039C18.8536 72.7797 18.9958 73.1905 19.2646 73.5002C19.5269 73.8022 19.8655 73.9573 20.1738 74.009L20.2002 74.0129L20.2266 74.0158L21.2959 74.1154V74.3937H13.0557V74.1135L14.0723 74.0158L14.0713 74.0139C14.6383 73.9637 15.0536 73.6717 15.2803 73.2316C15.4733 72.8567 15.497 72.435 15.4971 72.1408V69.5558H6.53516V72.2492C6.53516 72.7643 6.65509 73.2203 6.9541 73.5627C7.25507 73.9072 7.63929 74.0245 7.92676 74.0656L7.95996 74.0695L8.97656 74.1672V74.3937H0.736328V74.1652L1.70117 74.0695L1.7002 74.0685C2.20076 74.0241 2.64241 73.8101 2.91113 73.3615C3.14155 72.9768 3.17868 72.5192 3.17871 72.1408V66.0197C3.20684 65.6408 3.15972 65.2145 2.93848 64.8449C2.68722 64.4253 2.2651 64.1695 1.74902 64.1223H1.74805L0.791016 64.0266V63.7443H8.97656Z" fill="#000504" stroke="#000504" stroke-width="1.47359"/>
<path d="M32.397 63.7444C35.7083 63.7444 38.0054 64.3978 39.4546 65.4182C40.8696 66.4146 41.5366 67.8012 41.5366 69.4768C41.5366 71.183 40.8671 72.5827 39.4536 73.5842C38.0053 74.6102 35.7086 75.2629 32.397 75.2629C29.0573 75.2628 26.7475 74.6096 25.2925 73.5833C23.8727 72.5818 23.2026 71.1828 23.2026 69.4768C23.2026 67.8016 23.8697 66.4156 25.2905 65.4192C26.7464 64.3984 29.0575 63.7444 32.397 63.7444ZM32.397 64.554C30.9468 64.554 29.6404 64.8196 28.7007 65.6487C27.741 66.4954 27.3188 67.7884 27.3188 69.4768C27.3188 71.1888 27.74 72.4951 28.6987 73.3499C29.6393 74.188 30.9472 74.4534 32.397 74.4534C33.8229 74.4534 35.1181 74.1865 36.0513 73.3469C37.0005 72.4926 37.4214 71.1887 37.4214 69.4768C37.4214 67.7886 36.9986 66.498 36.0483 65.6516C35.1161 64.8214 33.8231 64.5541 32.397 64.554Z" fill="#000504" stroke="#000504" stroke-width="1.47359"/>
<path d="M51.3364 64.1793C51.4779 64.1794 51.6126 64.2345 51.7954 64.4528L58.1274 72.8561L59.4536 74.6139V66.4332C59.4536 66.137 59.4277 65.7249 59.2505 65.358C59.0462 64.9351 58.6609 64.6206 58.104 64.5612L58.105 64.5602L57.0649 64.4254V64.1793H63.2974V64.4596L62.2856 64.5573C61.6892 64.6116 61.3073 64.967 61.1118 65.3717C60.9386 65.7304 60.9097 66.1202 60.9097 66.3785V74.8287H55.5688C55.3494 74.8287 55.1904 74.726 55.1519 74.6686L55.1392 74.65L55.1255 74.6324L48.7222 66.152L47.397 64.3981V72.7389C47.397 73.1413 47.4881 73.5537 47.7358 73.8932C47.9963 74.2501 48.3803 74.4555 48.813 74.5035L48.8208 74.5045L49.7847 74.6002V74.8287H43.5522V74.5983L44.4653 74.5045L44.4937 74.5016L44.522 74.4967C44.9331 74.4217 45.3512 74.2435 45.6304 73.8317C45.8851 73.4557 45.9409 73.0006 45.9409 72.5758V66.4332C45.9409 66.0122 45.887 65.5551 45.6157 65.1832C45.3245 64.7839 44.8988 64.6348 44.522 64.566L44.4937 64.5612L44.4653 64.5582L43.5522 64.4635V64.1793H51.3364Z" fill="#000504" stroke="#000504" stroke-width="1.47359"/>
<path d="M70.1533 5.04053C70.6164 5.06127 71.1576 5.08687 71.4883 5.10986V5.11084C72.2215 5.16398 72.8233 5.22461 73.4355 5.30029C73.432 5.35766 73.4281 5.42069 73.4238 5.48877C73.3992 5.88206 73.3632 6.4504 73.3193 7.15088C73.2315 8.55237 73.1101 10.483 72.9766 12.5981C72.7094 16.8289 72.3928 21.7989 72.1953 24.7563C71.7852 30.8865 71.0706 41.1462 70.3955 49.0151C70.257 49.0333 70.0791 49.0572 69.8643 49.0815C69.289 49.1466 68.4501 49.2264 67.4023 49.2866C66.2936 49.35 65.4936 49.3853 64.9717 49.4048C64.8085 49.4109 64.6722 49.4141 64.5625 49.4175C64.1299 47.7554 63.6454 45.8083 63.1221 44.022C62.5653 42.1215 61.9467 40.3389 61.2676 39.2476C60.2471 37.6072 58.7279 37.2553 57.7588 37.1099L57.3799 37.0571L56.8447 36.9897C55.632 36.8514 54.6275 36.8278 54.1113 36.8442C53.596 36.8287 52.592 36.8517 51.3789 36.9897L50.8438 37.0571C49.939 37.1811 48.1222 37.3728 46.9561 39.2476C46.2769 40.3389 45.6583 42.1214 45.1016 44.022C44.5781 45.8088 44.0925 47.756 43.6602 49.4185C43.5508 49.4151 43.4151 49.4118 43.2529 49.4058C42.731 49.3864 41.9311 49.3503 40.8223 49.2866C39.7743 49.2264 38.9355 49.1466 38.3604 49.0815C38.1456 49.0573 37.9675 49.0333 37.8291 49.0151C37.1533 41.1465 36.4393 30.8855 36.0303 24.7563C35.8328 21.799 35.5155 16.829 35.248 12.5981C35.1143 10.483 34.9932 8.55237 34.9053 7.15088C34.8613 6.4504 34.8254 5.88206 34.8008 5.48877C34.7965 5.42067 34.7917 5.35767 34.7881 5.30029C35.4014 5.22428 36.0037 5.16312 36.7363 5.11084L36.7354 5.10986C37.0644 5.08669 37.6058 5.06126 38.0693 5.04053C38.2396 5.03291 38.3985 5.02559 38.5312 5.02002C39.9885 11.5459 40.5942 14.6555 41.8076 19.4897C42.3974 21.8359 42.9281 24.1289 43.5078 26.0903C44.085 28.0434 44.7289 29.7373 45.5742 30.8687C47.2953 33.1702 49.5983 33.6651 51.1094 33.8354H51.1104C51.8895 33.923 52.4591 33.9606 54.1094 33.9673H54.1133C55.7633 33.9609 56.3332 33.923 57.1123 33.8354C58.6235 33.6651 60.9253 33.1709 62.6475 30.8696V30.8687C63.4934 29.7373 64.1378 28.0437 64.7148 26.0903C65.2943 24.1289 65.8248 21.8364 66.4141 19.4897C67.6282 14.6559 68.2314 11.5459 69.6895 5.02002C69.8225 5.02562 69.9824 5.03287 70.1533 5.04053Z" fill="#000504" stroke="#000504" stroke-width="0.90406"/>
<path d="M54.1118 0.452148C55.9326 0.452841 62.0553 0.536427 64.6411 0.702148L64.6518 0.703125C67.6208 0.825053 72.2425 1.19525 74.8295 1.62988C77.4089 2.0631 80.0899 2.73575 82.2358 4.35254C84.3595 5.95269 86.008 8.51694 86.4467 12.8438C86.6903 15.2331 86.7613 18.3668 86.7162 21.7549C86.6617 25.9516 86.3782 29.1237 86.1235 31.5576L85.8881 33.7559C85.6974 35.5605 84.9494 40.9347 84.0024 43.6846C83.3479 45.5856 82.7353 46.7871 82.1284 47.6465C81.5246 48.5014 80.913 49.0377 80.2211 49.6025H80.2202C79.0048 50.5952 77.3729 51.2602 75.9047 51.6973C74.4433 52.1322 73.1874 52.3299 72.7299 52.4121C68.006 53.2634 58.3874 53.4197 54.1127 53.4141H54.1118C49.9718 53.4195 40.8165 53.2723 35.9516 52.4893L35.4946 52.4121L35.0112 52.3262C34.3967 52.2155 33.4161 52.0236 32.3198 51.6973C30.9433 51.2876 29.4228 50.6779 28.2368 49.7852L28.0043 49.6025C27.3124 49.0377 26.7009 48.5013 26.0971 47.6465C25.4902 46.7871 24.8776 45.5855 24.2231 43.6846L24.2221 43.6836C23.2748 40.9335 22.5269 35.5598 22.3373 33.7559C22.061 31.1245 21.5821 27.3504 21.5082 21.7549C21.4639 18.3669 21.5343 15.2343 21.7768 12.8438C22.2158 8.51695 23.8647 5.95271 25.9887 4.35254C28.1349 2.73575 30.8162 2.0631 33.3959 1.62988C35.9819 1.19525 40.6038 0.825042 43.5727 0.703125L43.5834 0.702148C45.5229 0.577865 49.452 0.50042 52.0629 0.46875L54.1118 0.452148ZM54.1118 1.67188C51.8439 1.65078 48.0121 1.72246 45.1977 1.86816L44.0688 1.93457C40.5527 2.10844 36.8365 2.45815 34.062 2.95312C31.065 3.48833 28.805 4.47745 27.2045 6.08984C25.7015 7.60428 24.8245 9.62373 24.4233 12.2061L24.3491 12.7305C23.8699 16.4865 23.8039 23.4371 24.1215 27.7295C24.6126 34.3771 25.1983 38.5626 26.0229 41.623L26.1918 42.2207C26.9933 44.9445 28.0046 46.8361 29.52 48.209C31.7092 50.1929 34.6054 50.8031 36.5727 51.1152L37.3539 51.2344C41.5554 51.8589 48.5976 52.0735 54.1108 52.0752H54.1118C59.6249 52.0731 66.6678 51.8586 70.8686 51.2344C72.7765 50.9498 76.2032 50.4765 78.7055 48.209C80.1255 46.9219 81.1024 45.1797 81.8803 42.7217L82.0336 42.2207C82.9471 39.1096 83.5781 34.8203 84.103 27.7295C84.4192 23.4372 84.3549 16.4862 83.8764 12.7295C83.5146 9.89421 82.6227 7.70412 81.019 6.08887C79.4183 4.47672 77.1585 3.48833 74.1616 2.95312C71.3871 2.4585 67.6707 2.10912 64.1547 1.93457H64.1537C61.3299 1.74431 56.702 1.64779 54.1118 1.67188Z" fill="#000504" stroke="#000504" stroke-width="0.90406"/>
</svg>
