<svg width="83" height="73" viewBox="0 0 83 73" fill="none" xmlns="http://www.w3.org/2000/svg">
<path d="M79.3976 41.4716L76.4951 41.0486L75.731 39.2239L77.4876 36.8636C78.7291 35.2333 78.562 32.9072 77.1056 31.4575L74.0017 28.3537C72.5419 26.8905 70.2738 26.7199 68.5991 27.9649L66.2524 29.7248L64.4106 28.9574L63.9876 26.0651C63.7045 24.0117 61.9821 22.5212 59.8913 22.5212H55.8529C55.0787 22.5212 54.4545 23.1488 54.4545 23.9197C54.4545 24.6939 55.0821 25.3182 55.8529 25.3182H59.8913C60.5769 25.3182 61.1191 25.782 61.2147 26.4574L61.7536 30.1479C61.8252 30.6356 62.1492 31.0518 62.6063 31.2393L65.9216 32.6173C66.3786 32.8048 66.9005 32.7435 67.2961 32.4433L70.2738 30.2058C70.8161 29.8 71.5494 29.8579 72.0235 30.3286L75.1273 33.4359C75.5912 33.8963 75.6458 34.6569 75.2501 35.1788L73.0092 38.1905C72.7125 38.5861 72.6477 39.1114 72.8421 39.5684L74.22 42.8632C74.411 43.3168 74.8203 43.6375 75.3081 43.7057L79.0088 44.2446C79.6637 44.3333 80.1582 44.9029 80.1582 45.5645V49.9542C80.1582 50.6193 79.6671 51.182 78.9986 51.2741L75.3081 51.813C74.8237 51.8847 74.4111 52.2019 74.22 52.6555L72.8421 55.9503C72.6511 56.4073 72.7159 56.9292 73.0092 57.3282L75.2603 60.3502C75.6492 60.8618 75.5878 61.6224 75.1273 62.0829L72.0235 65.1867C71.546 65.6574 70.8161 65.7119 70.2806 65.3129L67.2927 63.072C66.897 62.7719 66.3752 62.7071 65.9182 62.8981L62.6028 64.276C62.1458 64.467 61.8218 64.8797 61.7502 65.3674L61.2112 69.0682C61.1192 69.7333 60.5768 70.1938 59.8913 70.1938H55.5016C54.8365 70.1938 54.2806 69.7094 54.1783 69.058L53.6428 65.347C53.5712 64.8627 53.254 64.4466 52.7969 64.2556C51.3439 63.6484 50.9448 63.4813 49.4884 62.8947C49.0382 62.7105 48.5163 62.7787 48.1241 63.072L45.1499 65.3027C44.7747 65.5755 44.3927 65.596 44.1301 65.5585C43.3865 65.4425 42.66 65.9951 42.5577 66.7625C42.4554 67.5299 42.9943 68.2326 43.7617 68.3349C44.8361 68.485 45.9276 68.2087 46.8178 67.5538L49.1712 65.7837C49.8534 66.0633 50.2968 66.2441 50.9823 66.5306L51.4052 69.4707C51.719 71.5103 53.4415 72.9906 55.4982 72.9906H59.8878C61.9786 72.9906 63.6977 71.5035 63.9808 69.4604L64.4037 66.5579L66.2456 65.7904L68.599 67.5538C70.26 68.7919 72.535 68.6248 73.9949 67.165L77.0987 64.0611C78.5551 62.6081 78.7189 60.282 77.4909 58.6618L75.7276 56.2914L76.4916 54.4666L79.384 54.0437C81.4168 53.764 82.9516 52.0041 82.9516 49.9508V45.5611C82.9516 43.5078 81.4202 41.7444 79.3976 41.4682L79.3976 41.4716Z" fill="#15E9BF"/>
<path d="M57.694 57.6837C53.717 57.6837 50.1358 55.3064 48.5704 51.6262C48.2702 50.9133 47.4379 50.5688 46.7353 50.886C46.0225 51.1862 45.6916 52.0082 45.9952 52.721C47.9973 57.4381 52.5916 60.484 57.6938 60.484C64.7098 60.484 70.4158 54.7777 70.4158 47.762C70.4158 40.746 64.7095 35.04 57.6938 35.04C57.2879 35.04 56.8854 35.0639 56.5034 35.0878C55.7326 35.139 55.1459 35.8041 55.1971 36.5749C55.2482 37.3457 55.8929 37.9119 56.6842 37.8812C57.0048 37.8607 57.3493 37.8369 57.6903 37.8369C63.1612 37.8369 67.612 42.288 67.612 47.7586C67.612 53.2292 63.1609 57.6803 57.6903 57.6803L57.694 57.6837Z" fill="#15E9BF"/>
<path d="M45.3068 47.9151C49.9387 43.8221 52.5923 37.9278 52.5923 31.7441C52.5923 25.8025 50.1092 20.0586 45.7775 15.9896C41.3879 11.8626 35.6235 9.79561 29.6066 10.1777C18.7776 10.8462 10.0966 19.5232 9.42168 30.3626C8.99533 37.2046 11.7273 43.6853 16.9255 48.1393C20.193 50.9463 22.0723 55.1178 22.0723 59.5821V64.8586C22.0723 65.6328 22.6999 66.257 23.4708 66.257H23.7027C23.9824 69.0471 25.067 73.0002 30.9882 73.0002C36.9059 73.0002 37.9973 69.0471 38.2771 66.257H38.5056C39.2798 66.257 39.904 65.6295 39.904 64.8586V59.5003C39.904 55.172 41.8755 50.9528 45.3101 47.9134L45.3068 47.9151ZM37.1039 59.5045V63.4645H24.8691V59.5864C24.8691 59.2522 24.835 58.9247 24.818 58.5973H37.1549C37.1378 58.9009 37.1039 59.2009 37.1039 59.5045ZM30.9849 70.2078C27.8641 70.2078 26.875 68.9287 26.527 66.2649H35.4429C35.095 68.9287 34.1059 70.2078 30.9849 70.2078ZM37.5132 55.7971H24.4769C23.6788 51.9838 21.6937 48.5389 18.7502 46.0186C14.2275 42.1371 11.8468 36.4959 12.2185 30.54C12.8086 21.109 20.36 13.5579 29.7804 12.9781C35.0092 12.6609 40.0401 14.4448 43.8601 18.0363C47.687 21.6313 49.7915 26.5019 49.7915 31.7476C49.7915 37.1264 47.479 42.2561 43.4509 45.8203C40.3982 48.5182 38.3381 52.0314 37.5093 55.8006L37.5132 55.7971Z" fill="#15E9BF"/>
<path d="M9.32275 47.2294L6.38945 49.5692C5.78574 50.0501 5.68342 50.9335 6.16775 51.5372C6.44402 51.8851 6.8499 52.0624 7.2626 52.0624C7.56957 52.0624 7.87654 51.9635 8.13577 51.7555L11.0691 49.4157C11.6728 48.9347 11.7751 48.0513 11.2908 47.4476C10.803 46.8405 9.92305 46.7416 9.32275 47.2259V47.2294Z" fill="#15E9BF"/>
<path d="M6.42684 37.3486C6.25288 36.5948 5.49229 36.1139 4.74871 36.2947L1.08894 37.1303C0.335153 37.3009 -0.135498 38.0547 0.0350301 38.8085C0.185109 39.4565 0.758122 39.8965 1.39935 39.8965C1.50508 39.8965 1.6074 39.8863 1.71314 39.859L5.37291 39.0234C6.12669 38.8528 6.59735 38.099 6.42682 37.3452L6.42684 37.3486Z" fill="#15E9BF"/>
<path d="M1.08896 26.3589L4.74873 27.1946C4.85446 27.2185 4.95678 27.2321 5.06252 27.2321C5.70034 27.2321 6.27674 26.7887 6.42684 26.1441C6.59737 25.3903 6.12669 24.6365 5.37293 24.4659L1.71316 23.6303C0.969612 23.4529 0.208965 23.9304 0.0350315 24.6842C-0.135506 25.438 0.335181 26.1918 1.08894 26.3623L1.08896 26.3589Z" fill="#15E9BF"/>
<path d="M9.32275 16.2591C9.58198 16.4671 9.88895 16.5661 10.1959 16.5661C10.6052 16.5661 11.0145 16.3853 11.2908 16.0408C11.7751 15.4371 11.6728 14.5537 11.0691 14.0728L8.13577 11.733C7.53888 11.252 6.64869 11.351 6.16775 11.9547C5.68342 12.5584 5.78574 13.4417 6.38945 13.9227L9.32275 16.2625V16.2591Z" fill="#15E9BF"/>
<path d="M18.1837 8.3945C18.4258 8.89589 18.9272 9.18922 19.4457 9.18922C19.6503 9.18922 19.8584 9.14488 20.0528 9.04937C20.752 8.71512 21.0453 7.87602 20.7111 7.18028L19.0841 3.79678C18.7464 3.09757 17.9039 2.80766 17.215 3.1385C16.5158 3.47275 16.2225 4.31185 16.5567 5.00759L18.1837 8.39109L18.1837 8.3945Z" fill="#15E9BF"/>
<path d="M30.9841 6.55221C31.7584 6.55221 32.3826 5.92462 32.3826 5.15375V1.39846C32.3826 0.624206 31.755 0 30.9841 0C30.2099 0 29.5857 0.627586 29.5857 1.39846V5.15375C29.5857 5.928 30.2133 6.55221 30.9841 6.55221Z" fill="#15E9BF"/>
<path d="M41.9125 9.04956C42.1103 9.14165 42.3149 9.1894 42.5196 9.1894C43.038 9.1894 43.5428 8.89607 43.7816 8.39469L45.4119 5.01118C45.7462 4.31197 45.4529 3.47634 44.7571 3.13869C44.0613 2.80443 43.2222 3.09435 42.8846 3.79356L41.2542 7.17706C40.9199 7.87627 41.2133 8.71191 41.9091 9.04956H41.9125Z" fill="#15E9BF"/>
<path d="M51.7732 16.5666C52.0802 16.5666 52.3872 16.4677 52.6464 16.2596L55.5831 13.9198C56.1868 13.4389 56.2891 12.5555 55.8048 11.9518C55.3205 11.3447 54.4371 11.2458 53.8368 11.7301L50.9001 14.0699C50.2964 14.5508 50.194 15.4342 50.6784 16.0379C50.9546 16.3858 51.3605 16.5632 51.7732 16.5632V16.5666Z" fill="#15E9BF"/>
<path d="M32.0354 18.3023C31.5033 17.702 30.4733 17.702 29.9378 18.3023L18.5291 31.1814C18.1642 31.5941 18.0755 32.1807 18.3006 32.6856C18.5257 33.1904 19.0237 33.511 19.5762 33.511H25.0642V47.2153C25.0642 47.9895 25.6918 48.6137 26.4626 48.6137C27.2369 48.6137 27.8611 47.9862 27.8611 47.2153V32.1087C27.8611 31.3345 27.2335 30.7103 26.4626 30.7103H22.6869L30.9853 21.3439L39.2838 30.7103H35.5081C34.7338 30.7103 34.1096 31.3378 34.1096 32.1087V47.2153C34.1096 47.9895 34.7372 48.6137 35.5081 48.6137C36.2823 48.6137 36.9065 47.9862 36.9065 47.2153V33.511H42.3945C42.9471 33.511 43.445 33.1904 43.6701 32.6856C43.8952 32.1842 43.8066 31.5976 43.4416 31.1814L32.0329 18.3023H32.0354Z" fill="#15E9BF"/>
</svg>
