<svg width="77" height="86" viewBox="0 0 77 86" fill="none" xmlns="http://www.w3.org/2000/svg">
<path d="M38.4325 17.5999C49.9345 17.5999 59.2651 26.9305 59.2651 38.4325C59.2651 42.4843 58.0883 46.4392 55.8702 49.8292C52.7778 54.553 51.0778 59.2434 50.4493 64.8565L50.1468 67.5494C50.0565 68.3801 49.3494 68.9969 48.532 68.9969L28.3329 69.0003C27.4604 69.0003 26.7449 68.3099 26.7065 67.4457L26.4157 64.8565C25.7871 59.2434 24.0872 54.553 20.9948 49.8292C18.7783 46.4376 17.5999 42.4843 17.5999 38.4325C17.5999 26.9305 26.9305 17.5999 38.4325 17.5999ZM38.4325 20.856C28.7224 20.856 20.856 28.7224 20.856 38.4325C20.856 41.8642 21.8356 45.1772 23.7161 48.0506C27.0709 53.1756 28.9598 58.4143 29.6451 64.5021L29.7838 65.7441H47.0811L47.2199 64.5021C47.9052 58.4143 49.7941 53.1756 53.1489 48.0506C55.0294 45.1772 56.0089 41.8659 56.0089 38.4325C56.0089 28.7224 48.1426 20.856 38.4325 20.856Z" fill="#15E9BF"/>
<path d="M38.4324 23.2598C39.3301 23.2598 40.0605 23.9902 40.0605 24.8879C40.0605 25.7855 39.3301 26.516 38.4324 26.516C32.5452 26.516 27.5155 30.8135 26.6463 36.6456C26.5176 37.5332 25.6902 38.1467 24.8026 38.018C23.915 37.8892 23.3015 37.0618 23.4302 36.1742C24.5351 28.7609 30.9439 23.2598 38.4324 23.2598Z" fill="#15E9BF"/>
<path d="M36.8044 1.6281C36.8044 0.730471 37.5349 0 38.4325 0C39.3301 0 40.0606 0.730471 40.0606 1.6281V12.0218C40.0606 12.9195 39.3301 13.6499 38.4325 13.6499C37.5349 13.6499 36.8044 12.9195 36.8044 12.0218V1.6281Z" fill="#15E9BF"/>
<path d="M63.307 11.2579C63.9406 10.6243 64.9736 10.6243 65.6071 11.2579C66.2406 11.8914 66.2406 12.9244 65.6071 13.5579L58.2573 20.9078C57.6237 21.5413 56.5907 21.5413 55.9572 20.9078C55.3237 20.2742 55.3237 19.2412 55.9572 18.6077L63.307 11.2579Z" fill="#15E9BF"/>
<path d="M75.2367 36.8044C76.1343 36.8044 76.8648 37.5349 76.8648 38.4325C76.8648 39.3302 76.1343 40.0606 75.2367 40.0606H64.8429C63.9453 40.0606 63.2148 39.3302 63.2148 38.4325C63.2148 37.5349 63.9453 36.8044 64.8429 36.8044H75.2367Z" fill="#15E9BF"/>
<path d="M65.6071 63.3069C66.2406 63.9404 66.2406 64.9735 65.6071 65.607C64.9736 66.2405 63.9406 66.2405 63.307 65.607L55.9572 58.2571C55.3237 57.6236 55.3237 56.5906 55.9572 55.9571C56.5907 55.3236 57.6237 55.3236 58.2573 55.9571L65.6071 63.3069Z" fill="#15E9BF"/>
<path d="M11.2579 13.5579C10.6244 12.9244 10.6244 11.8914 11.2579 11.2579C11.8914 10.6243 12.9245 10.6243 13.558 11.2579L20.9078 18.6077C21.5413 19.2412 21.5413 20.2742 20.9078 20.9078C20.2743 21.5413 19.2413 21.5413 18.6078 20.9078L11.2579 13.5579Z" fill="#15E9BF"/>
<path d="M1.62816 40.0606C0.730532 40.0606 6.10352e-05 39.3302 6.10352e-05 38.4325C6.10352e-05 37.5349 0.730532 36.8044 1.62816 36.8044H12.0219C12.9195 36.8044 13.65 37.5349 13.65 38.4325C13.65 39.3302 12.9195 40.0606 12.0219 40.0606H1.62816Z" fill="#15E9BF"/>
<path d="M13.558 65.607C12.9245 66.2405 11.8914 66.2405 11.2579 65.607C10.6244 64.9735 10.6244 63.9404 11.2579 63.3069L18.6078 55.9571C19.2413 55.3236 20.2743 55.3236 20.9078 55.9571C21.5413 56.5906 21.5413 57.6236 20.9078 58.2571L13.558 65.607Z" fill="#15E9BF"/>
<path d="M28.333 74.6668C27.4354 74.6668 26.7049 73.9364 26.7049 73.0387C26.7049 72.1411 27.4354 71.4106 28.333 71.4106H48.5321C49.4297 71.4106 50.1602 72.1411 50.1602 73.0387C50.1602 73.9364 49.4297 74.6668 48.5321 74.6668H28.333Z" fill="#15E9BF"/>
<path d="M28.333 80.3333C27.4354 80.3333 26.7049 79.6029 26.7049 78.7052C26.7049 77.8076 27.4354 77.0771 28.333 77.0771H48.5321C49.4297 77.0771 50.1602 77.8076 50.1602 78.7052C50.1602 79.6029 49.4297 80.3333 48.5321 80.3333H28.333Z" fill="#15E9BF"/>
<path d="M32.2744 86.0001C31.3768 86.0001 30.6463 85.2696 30.6463 84.372C30.6463 83.4744 31.3768 82.7439 32.2744 82.7439H44.5904C45.4881 82.7439 46.2185 83.4744 46.2185 84.372C46.2185 85.2696 45.4881 86.0001 44.5904 86.0001H32.2744Z" fill="#15E9BF"/>
</svg>
