<svg width="200" height="40" viewBox="0 0 200 40" fill="none" xmlns="http://www.w3.org/2000/svg">
<g clip-path="url(#clip0_1_283)">
<path d="M21.4952 0.218347L12.2136 4.02785C11.9701 4.12258 11.7616 4.2897 11.6161 4.50668C11.4706 4.72367 11.3952 4.98003 11.4 5.24123V15.6374L18.7438 12.6886C19.8895 12.2512 20.8723 11.4712 21.5587 10.455C22.245 9.43877 22.6013 8.23567 22.5792 7.0096V0.956733C22.5898 0.823938 22.5652 0.690695 22.5077 0.570532C22.4502 0.450368 22.3618 0.347567 22.2517 0.27257C22.1415 0.197575 22.0137 0.153057 21.8807 0.143533C21.7478 0.13401 21.6148 0.159819 21.4952 0.218347Z" fill="#78DE1F"/>
<path d="M0.124062 21.1027V26.7017C0.124062 34.3325 5.65253 39.8587 13.2927 39.8587H21.5678C21.703 39.8632 21.8378 39.84 21.9636 39.7904C22.0896 39.7407 22.204 39.6657 22.2996 39.5699C22.3953 39.4742 22.4703 39.3599 22.52 39.234C22.5696 39.108 22.593 38.9734 22.5883 38.838V29.6459C22.593 29.5105 22.5696 29.3757 22.52 29.2497C22.4703 29.1237 22.3955 29.0092 22.2998 28.9132C22.2041 28.8174 22.0898 28.7422 21.9638 28.6922C21.838 28.6422 21.7031 28.6187 21.5678 28.623H13.1045C12.8784 28.6312 12.6531 28.5927 12.4425 28.51C12.2319 28.4272 12.0407 28.3019 11.8807 28.1419C11.7207 27.982 11.5955 27.7907 11.5127 27.5802C11.4299 27.3695 11.3915 27.1442 11.3997 26.9182V15.6307L0.942393 19.887C0.696684 19.9797 0.485899 20.1465 0.339266 20.3644C0.192633 20.5822 0.117423 20.8402 0.124062 21.1027Z" fill="#01602A"/>
<path d="M67.8719 9.37738C60.8009 9.37738 55.3548 14.8729 55.3548 21.8006C55.3548 28.7283 60.8009 34.2214 67.8719 34.2214C74.9431 34.2214 80.3893 28.7283 80.3893 21.8006C80.3893 14.8729 74.9431 9.37738 67.8719 9.37738ZM67.8719 29.3489C63.6204 29.3489 60.6574 26.0568 60.6574 21.8006C60.6574 17.5443 63.6204 14.2521 67.8719 14.2521C72.0766 14.2521 75.0371 17.5443 75.0371 21.8006C75.0371 26.0568 72.0766 29.3489 67.8719 29.3489Z" fill="#01602A"/>
<path d="M105.47 27.4373L101.553 25.3349C101.507 25.3079 101.455 25.2914 101.402 25.2866C101.349 25.2818 101.296 25.2886 101.246 25.3068C101.195 25.3251 101.15 25.3541 101.112 25.3918C101.075 25.4296 101.046 25.4753 101.028 25.5254C100.429 26.6889 99.5174 27.6629 98.396 28.3381C97.2749 29.0134 95.9877 29.3634 94.6789 29.3489C90.425 29.3489 87.415 26.0568 87.415 21.8006C87.415 17.5443 90.425 14.2521 94.6789 14.2521C95.9879 14.2359 97.2754 14.5848 98.3969 15.2598C99.5185 15.9348 100.43 16.9091 101.028 18.0734C101.046 18.1238 101.074 18.1698 101.112 18.2078C101.149 18.2458 101.195 18.2749 101.245 18.2933C101.295 18.3114 101.349 18.3183 101.402 18.3133C101.455 18.3081 101.507 18.2913 101.553 18.2638L105.47 16.1616C105.518 16.1405 105.56 16.1092 105.594 16.0697C105.628 16.0303 105.653 15.9837 105.667 15.9335C105.68 15.8833 105.683 15.8306 105.674 15.7794C105.664 15.7281 105.644 15.6795 105.614 15.6372C103.511 11.8136 99.4995 9.37738 94.6742 9.37738C87.5067 9.37738 82.0605 14.7295 82.0605 21.8006C82.0605 28.8716 87.5067 34.2214 94.6742 34.2214C99.4995 34.2214 103.561 31.7853 105.663 27.9146C105.699 27.8256 105.7 27.7259 105.664 27.6368C105.628 27.5476 105.558 27.4759 105.47 27.4373Z" fill="#01602A"/>
<path d="M54.733 28.9661H42.505V10.2383C42.498 10.139 42.4553 10.0456 42.3848 9.97521C42.3145 9.90481 42.221 9.86214 42.1216 9.85504H37.6303C37.5311 9.86219 37.4381 9.90494 37.3681 9.97539C37.298 10.0458 37.2558 10.1392 37.2493 10.2383V29.3492C37.2493 32.0724 38.9213 33.7444 41.6443 33.7444H54.733C54.8323 33.7377 54.9256 33.6951 54.9958 33.6246C55.0658 33.5539 55.108 33.4602 55.114 33.3611V29.3492C55.108 29.2501 55.0658 29.1564 54.9958 29.0857C54.9256 29.0152 54.8323 28.9727 54.733 28.9661Z" fill="#01602A"/>
<path d="M173.697 28.9656H161.161L173.507 14.2991C173.632 14.1522 173.698 13.9652 173.697 13.7724V10.2451C173.69 10.1456 173.648 10.0519 173.577 9.98139C173.507 9.91089 173.413 9.86837 173.313 9.86176H154.972C154.872 9.86837 154.778 9.91089 154.708 9.98139C154.637 10.0519 154.595 10.1456 154.588 10.2451V14.2591C154.595 14.3584 154.637 14.4518 154.708 14.5219C154.779 14.592 154.872 14.634 154.972 14.6401H166.902L154.588 29.3561C154.464 29.5026 154.397 29.6886 154.398 29.8804V33.3606C154.404 33.4599 154.446 33.5536 154.516 33.6241C154.586 33.6948 154.679 33.7373 154.779 33.7439H173.7C173.798 33.7373 173.892 33.6948 173.962 33.6241C174.032 33.5536 174.073 33.4599 174.08 33.3606V29.3489C174.073 29.2493 174.032 29.1553 173.962 29.0848C173.89 29.0141 173.797 28.9718 173.697 28.9656Z" fill="#01602A"/>
<path d="M150.478 1.30457H145.986C145.887 1.31118 145.794 1.35343 145.724 1.42349C145.654 1.49355 145.612 1.58666 145.605 1.68551V6.27336C145.612 6.37222 145.654 6.46532 145.724 6.53539C145.794 6.60544 145.887 6.64771 145.986 6.65432H147.705C148.123 6.66771 148.539 6.59531 148.928 6.44157C149.316 6.28784 149.669 6.05604 149.965 5.76051C150.26 5.46497 150.492 5.11197 150.646 4.72332C150.8 4.33469 150.872 3.91864 150.859 3.50091V1.68551C150.852 1.58666 150.81 1.49355 150.74 1.42349C150.67 1.35343 150.577 1.31118 150.478 1.30457Z" fill="#01602A"/>
<path d="M199.493 9.85475H195.002C194.903 9.86191 194.81 9.90466 194.74 9.9751C194.67 10.0455 194.628 10.1389 194.622 10.238V13.0764C193.285 11.1504 190.433 9.37738 186.977 9.37738C180.432 9.37738 175.453 14.967 175.453 21.8006C175.453 28.6341 180.423 34.2214 186.977 34.2214C190.433 34.2214 193.285 32.4506 194.622 30.5248V33.3608C194.628 33.4599 194.67 33.5536 194.74 33.6243C194.81 33.6948 194.903 33.7373 195.002 33.7441H199.493C199.593 33.7374 199.687 33.6949 199.758 33.6244C199.828 33.5539 199.87 33.4603 199.877 33.3608V10.238C199.87 10.1387 199.827 10.0453 199.757 9.97491C199.687 9.90451 199.593 9.86185 199.493 9.85475ZM187.932 29.4431C183.73 29.4431 180.813 26.0991 180.813 21.8006C180.813 17.5019 183.73 14.1557 187.932 14.1557C192.133 14.1557 195.052 17.4996 195.052 21.8006C195.052 26.1016 192.137 29.4431 187.932 29.4431Z" fill="#01602A"/>
<path d="M131.042 9.85475H126.55C126.451 9.86191 126.358 9.90466 126.288 9.9751C126.218 10.0455 126.176 10.1389 126.169 10.238V13.0764C124.831 11.1504 121.979 9.37738 118.524 9.37738C111.978 9.37738 107.002 14.967 107.002 21.8006C107.002 28.6341 111.971 34.2214 118.524 34.2214C121.979 34.2214 124.831 32.4506 126.169 30.5248V33.3608C126.175 33.4599 126.217 33.5536 126.287 33.6243C126.358 33.6948 126.451 33.7373 126.55 33.7441H131.042C131.141 33.7373 131.234 33.6948 131.304 33.6243C131.375 33.5536 131.417 33.4599 131.423 33.3608V10.238C131.416 10.1389 131.374 10.0455 131.304 9.9751C131.234 9.90466 131.141 9.86191 131.042 9.85475ZM119.479 29.4431C115.275 29.4431 112.361 26.0991 112.361 21.8006C112.361 17.5019 115.275 14.1557 119.479 14.1557C123.684 14.1557 126.597 17.4996 126.597 21.8006C126.597 26.1016 123.674 29.4431 119.47 29.4431H119.479Z" fill="#01602A"/>
<path d="M150.478 9.85504H145.989C145.777 9.85504 145.605 10.0266 145.605 10.2383V33.3587C145.605 33.5704 145.777 33.7419 145.989 33.7419H150.478C150.689 33.7419 150.861 33.5704 150.861 33.3587V10.2383C150.861 10.0266 150.689 9.85504 150.478 9.85504Z" fill="#01602A"/>
<path d="M140.776 1.30457H136.287C136.075 1.30457 135.903 1.47617 135.903 1.68786V33.3607C135.903 33.5724 136.075 33.744 136.287 33.744H140.776C140.987 33.744 141.159 33.5724 141.159 33.3607V1.68786C141.159 1.47617 140.987 1.30457 140.776 1.30457Z" fill="#01602A"/>
</g>
<defs>
<clipPath id="clip0_1_283">
<rect width="200" height="40" fill="white"/>
</clipPath>
</defs>
</svg>
