<svg width="119" height="39" viewBox="0 0 119 39" fill="none" xmlns="http://www.w3.org/2000/svg">
<path d="M19.434 0V30.8944C19.434 33.4954 18.6436 35.439 17.1853 36.8537C15.5091 38.4817 12.2437 39.0259 8.42479 38.9128C7.77456 38.894 7.14317 38.8433 6.25852 38.7538C5.37269 38.6631 4.09578 38.3721 3.26531 38.2096C2.43367 38.0482 0.505346 37.61 0 37.3933L1.08844 31.1359C3.54331 31.5718 5.8745 31.9393 7.51423 31.9216C9.97028 31.9216 11.1989 30.9109 11.1989 28.8884V0.00117911H19.434V0Z" fill="#E8E8E8"/>
<path d="M31.7791 0.0989571C33.6933 0.0989571 35.6534 0.108381 37.6571 0.124872C39.662 0.14372 41.6304 0.197907 43.5623 0.287432C45.4941 0.378135 47.2917 0.513602 48.9526 0.69383L48.5191 6.65314H34.9737C33.9984 6.65314 33.2574 6.88756 32.7521 7.35756C32.2456 7.82757 31.9935 8.51315 31.9935 9.41665V38.927H23.7042V7.73805C23.7042 5.42688 24.4439 3.57513 25.9258 2.18513C27.4065 0.795136 29.3572 0.0989571 31.7779 0.0989571H31.7791ZM46.3269 19.5141C46.3269 20.1738 46.2009 20.8028 45.9488 21.4036C45.6967 22.0044 45.3469 22.518 44.9028 22.9444C44.4563 23.3708 43.9439 23.71 43.362 23.9621C42.7813 24.2142 42.1416 24.3391 41.4443 24.3391C40.1261 24.3391 39.0024 23.8738 38.073 22.9444C37.1435 22.0138 36.6782 20.8712 36.6782 19.5153C36.6782 18.1595 37.1435 17.0157 38.073 16.0863C39.0035 15.1569 40.1261 14.6916 41.4443 14.6916C42.1416 14.6916 42.7813 14.8176 43.362 15.0697C43.9427 15.3218 44.4563 15.6716 44.9028 16.1169C45.3481 16.5622 45.6967 17.0758 45.9488 17.6565C46.1997 18.2372 46.3269 18.858 46.3269 19.5165V19.5141Z" fill="#E8E8E8"/>
<path d="M67.1545 0.0989571C70.1159 0.0989571 72.6261 0.415831 74.6852 1.04722C76.7443 1.67979 78.397 2.72699 79.6433 4.19002C80.8896 5.65305 81.8013 7.64028 82.3797 10.1493C82.9569 12.6608 83.2467 15.7941 83.2467 19.5495C83.2467 23.3048 82.9569 26.4394 82.3797 28.9496C81.8013 31.4599 80.8896 33.4459 79.6433 34.9089C78.397 36.372 76.7443 37.4192 74.6852 38.0518C72.6261 38.6831 70.1159 39 67.1545 39C64.1931 39 61.6829 38.6831 59.6238 38.0518C57.5647 37.4204 55.9026 36.372 54.6386 34.9089C53.3747 33.4459 52.4535 31.4599 51.8751 28.9496C51.2968 26.4394 51.0082 23.3072 51.0082 19.5495C51.0082 15.7918 51.2968 12.6608 51.8751 10.1493C52.4524 7.6391 53.3735 5.65305 54.6386 4.19002C55.9026 2.72817 57.5647 1.67979 59.6238 1.04722C61.6829 0.415831 64.1931 0.0989571 67.1545 0.0989571ZM67.1545 6.6555C65.2391 6.6555 63.7502 7.0348 62.6841 7.79341C61.6181 8.55202 60.8595 9.86074 60.4083 11.7219C59.956 13.5819 59.731 16.1923 59.731 19.5507C59.731 22.909 59.956 25.4758 60.4083 27.3523C60.8595 29.2312 61.6181 30.5493 62.6841 31.3079C63.749 32.0665 65.2391 32.4458 67.1545 32.4458C69.0699 32.4458 70.5046 32.0665 71.5695 31.3079C72.6344 30.5493 73.393 29.2312 73.8453 27.3523C74.2965 25.4746 74.5227 22.8737 74.5227 19.5507C74.5227 16.2276 74.2965 13.5819 73.8453 11.7219C73.393 9.86192 72.6344 8.5532 71.5695 7.79341C70.5035 7.0348 69.0322 6.6555 67.1545 6.6555Z" fill="#E8E8E8"/>
<path d="M100.026 21.956L91.6786 38.9269H83.2467L92.9307 19.5494L83.2809 0.0989227H91.7693L100.054 17.0675C100.882 18.7908 100.794 20.3693 100.027 21.956H100.026Z" fill="#15E9BF"/>
<path d="M101.493 17.0475L109.84 0.0765533H118.272L108.588 19.454L118.238 38.9046H109.873L101.464 21.936C100.636 20.2127 100.724 18.6342 101.491 17.0475H101.493Z" fill="#E8E8E8"/>
</svg>
