<svg width="68" height="68" viewBox="0 0 68 68" fill="none" xmlns="http://www.w3.org/2000/svg">
<path fill-rule="evenodd" clip-rule="evenodd" d="M7.40387 7.40689C17.2797 -2.46896 33.2878 -2.46896 43.1637 7.40689C52.0348 16.278 52.9996 30.2229 45.7206 40.1838L50.3377 44.8009C50.8996 44.239 51.9184 43.0017 53.0138 44.0972L66.1531 57.2364C70.0863 61.1697 67.3308 68 61.692 68V67.9943C60.0744 67.9943 58.4569 67.3814 57.2309 66.1583L44.0946 53.0191C42.9992 51.9237 44.2365 50.9048 44.7984 50.343L40.1812 45.7258C23.6195 57.829 0 46.0238 0 25.2876C0 18.8144 2.46914 12.3448 7.40387 7.40689ZM25.2849 19.7404C22.22 19.7404 19.7369 22.2236 19.7369 25.2884C19.7369 30.1978 25.7106 32.7065 29.2067 29.2103L29.2038 29.2074C31.3748 27.0336 31.372 23.5289 29.2067 21.3665L29.2038 21.3693C28.2872 20.3817 26.752 19.7404 25.2849 19.7404ZM27.2373 23.3331C24.6662 20.7678 20.7671 24.6669 23.3353 27.2352C24.4108 28.3107 26.1589 28.3107 27.2345 27.2352L27.2373 27.238C28.3242 26.066 28.3044 24.4059 27.2345 23.336L27.2373 23.3331ZM25.2849 14.8056C18.6103 14.8056 12.0236 18.6027 10.1391 24.8711L10.1334 25.6856C11.0189 28.6426 13.0422 31.2024 15.7807 33.0042C24.5239 38.7537 37.5978 35.1269 40.4304 25.7052L40.436 24.8907C38.5602 18.6078 31.9681 14.8049 25.2852 14.8049L25.2849 14.8056ZM33.2617 19.891C28.6019 16.8261 21.967 16.8261 17.3044 19.891C15.2356 21.2504 13.6833 23.129 12.9285 25.2858C13.6806 27.4426 15.2357 29.3212 17.3016 30.6805C21.9642 33.7483 28.5963 33.7483 33.2589 30.6805C35.3277 29.3212 36.88 27.4426 37.6319 25.2858C36.8828 23.1319 35.3304 21.2532 33.2617 19.891ZM43.9432 42.3525L42.3484 43.9474L46.7697 48.3687L48.3645 46.7739L43.9432 42.3525ZM52.0283 47.0577L47.0507 52.0353L59.2048 64.1872C59.8915 64.874 60.794 65.2174 61.6936 65.2174V65.2117C62.596 65.2117 63.4985 64.8712 64.1824 64.1872C64.2533 64.0453 65.2069 63.2876 65.2069 61.6984C65.2069 60.796 64.8663 59.8935 64.1824 59.2096L52.0283 47.0577ZM25.2849 2.79C12.8605 2.79 2.78923 12.8613 2.78923 25.2856C2.78923 37.71 12.8605 47.7813 25.2849 47.7813C37.7092 47.7813 47.7805 37.71 47.7805 25.2856C47.7805 12.8613 37.7092 2.79 25.2849 2.79Z" fill="#15E9BF"/>
</svg>
