<svg width="20" height="23" viewBox="0 0 20 23" fill="none" xmlns="http://www.w3.org/2000/svg">
<path fill-rule="evenodd" clip-rule="evenodd" d="M10.8731 1.45242C10.432 -0.442573 9.42331 -0.250339 9.00851 0.707775C8.91543 0.922263 8.83753 1.17318 8.7748 1.45343C4.87961 1.97548 1.86971 5.35975 1.86971 9.40179V15.8223C1.86971 17.439 0 17.7466 0 18.7604C0 19.1753 0.277214 19.2906 0.666732 19.2906H18.9834C19.5631 19.2906 19.7684 18.98 19.5975 18.4347C19.4154 17.8549 17.7804 17.2611 17.7804 15.8223V9.40081C17.7804 5.35902 14.7694 1.97457 10.8731 1.45242ZM9.82497 20.8434H6.98187C7.77406 23.7189 11.8758 23.7189 12.6678 20.8434H9.82497Z" fill="#010F0C"/>
</svg>
