<svg width="187" height="33" viewBox="0 0 187 33" fill="none" xmlns="http://www.w3.org/2000/svg">
<path d="M148.797 1.83173C148.546 1.83286 148.295 1.84156 148.043 1.85631C145.596 2.00575 143.52 2.96527 141.805 4.70353C140.366 6.15863 139.375 7.90475 138.675 9.81604C137.943 11.8139 137.527 13.8826 137.306 15.9984C137.094 18.0119 137.07 20.0176 137.487 22.0154C137.818 23.5728 138.407 25.012 139.485 26.2154C141.027 27.9379 143.04 28.5516 145.274 28.5044C145.935 28.4886 146.273 28.6931 146.58 29.2516C147.13 30.2505 147.767 31.1943 148.389 32.1853C150.434 31.265 152.455 30.3605 154.516 29.4324C153.604 28.3312 152.707 27.2616 151.787 26.1604C152.864 25.1143 153.729 23.9738 154.398 22.7075C156.073 19.5063 156.702 16.0613 156.852 12.4983C156.931 10.6656 156.797 8.85658 156.215 7.11046C155.483 4.92388 154.209 3.21706 151.983 2.35973C150.954 1.96351 149.884 1.82684 148.797 1.83173ZM147.956 8.07782C148.001 8.07683 148.046 8.07735 148.09 8.0792C148.713 8.10464 149.204 8.40696 149.411 8.98111C149.425 9.0221 149.439 9.06441 149.451 9.10816C149.639 9.80031 149.702 10.5398 149.765 10.933C149.576 14.0871 149.285 16.8792 148.507 19.6006C148.33 20.2422 148.07 20.8492 147.597 21.3373C147.566 21.3699 147.533 21.4019 147.5 21.4333C146.754 22.1457 145.743 22.1468 145.111 21.5771C145.111 21.577 145.111 21.5768 145.111 21.5767C145.09 21.5581 145.07 21.5383 145.051 21.5186C145.044 21.512 145.037 21.5061 145.031 21.4994C145.031 21.4992 145.03 21.4989 145.03 21.4986C144.978 21.4452 144.93 21.3873 144.885 21.3255C144.885 21.3252 144.884 21.325 144.884 21.3247C144.816 21.2315 144.756 21.129 144.705 21.0173C144.705 21.0172 144.705 21.0172 144.705 21.0171C144.695 20.9954 144.687 20.9726 144.677 20.9502C144.671 20.9341 144.664 20.9186 144.657 20.9022C144.654 20.8922 144.651 20.8816 144.647 20.8715C144.622 20.802 144.6 20.7301 144.582 20.6546C144.409 19.9388 144.377 19.176 144.409 18.4366C144.416 18.2735 144.423 18.1103 144.432 17.9473C144.56 15.503 144.878 13.0881 145.541 10.7285C145.73 10.0599 146.068 9.42272 146.438 8.83282C146.76 8.30583 147.335 8.08563 147.956 8.07777L147.956 8.07782Z" fill="#056734"/>
<path d="M89.0914 28.0167C86.9127 28.0167 84.7733 28.0167 82.5946 28.0167C82.7125 27.0964 82.8305 26.2076 82.9485 25.3188C83.1687 23.6199 83.3968 21.921 83.6171 20.222C83.7351 19.3254 83.853 18.4366 83.971 17.5399C83.9946 17.3433 84.0182 17.1467 84.0103 16.95C83.9946 16.5568 83.916 16.1792 83.507 16.0062C83.0665 15.8253 82.6339 15.8489 82.2485 16.1556C81.6979 16.5961 81.5878 17.2332 81.5013 17.8703C81.1631 20.4108 80.8327 22.9513 80.4945 25.4919C80.4001 26.1919 80.3215 26.8919 80.2271 27.5919C80.2113 27.7335 80.172 27.8672 80.1484 28.0167C77.9933 28.0167 75.8618 28.0167 73.6673 28.0167C73.746 27.3953 73.8168 26.7897 73.8954 26.184C74.2022 23.848 74.5089 21.5198 74.8157 19.1838C75.146 16.7062 75.4764 14.2286 75.8067 11.7589C75.8696 11.2633 75.9168 10.7678 76.0034 10.2802C76.0191 10.1701 76.1764 9.99702 76.2708 9.99702C78.2607 9.98128 80.2507 9.98128 82.3114 9.98128C82.2092 10.815 82.1148 11.6094 82.0204 12.4038C82.044 12.4196 82.0676 12.4353 82.0912 12.451C82.162 12.3645 82.2406 12.278 82.3114 12.1836C83.6485 10.5319 85.3239 9.58802 87.4947 9.61948C89.3981 9.64307 90.5308 10.5083 91.0027 12.3488C91.0184 12.4038 91.0263 12.4668 91.0341 12.4904C91.5533 11.9398 92.0331 11.3184 92.623 10.8386C94.1331 9.60375 95.8871 9.34419 97.7276 9.83971C99.1041 10.2094 99.9063 11.3971 99.8985 13.0331C99.8906 14.0005 99.7647 14.9601 99.6389 15.9197C99.3793 18.0355 99.0883 20.1434 98.8052 22.2592C98.5613 24.084 98.3332 25.9166 98.0737 27.7414C98.058 27.8436 97.8928 28.0088 97.7905 28.0088C95.7298 28.0245 93.6769 28.0167 91.6162 28.0167C91.5769 28.0167 91.5454 27.9931 91.4903 27.9773C91.6555 26.7031 91.8207 25.4368 91.9937 24.1705C92.269 22.0704 92.5522 19.9704 92.8196 17.8703C92.8589 17.5635 92.8904 17.2489 92.8983 16.9343C92.9061 16.5174 92.7881 16.132 92.3634 15.9747C91.9229 15.8096 91.4825 15.8567 91.1207 16.1871C90.7117 16.5646 90.5544 17.0602 90.4836 17.5871C90.051 20.8434 89.6341 24.0997 89.2015 27.3481C89.17 27.5683 89.1307 27.7728 89.0914 28.0167Z" fill="#94C120"/>
<path d="M159.715 2.35185C162.13 2.35185 164.513 2.35185 166.912 2.35185C166.668 4.23168 166.416 6.08005 166.172 7.93629C165.897 10.0128 165.622 12.0892 165.347 14.1578C165.118 15.8568 164.89 17.5557 164.67 19.2546C164.631 19.5692 164.607 19.8838 164.599 20.1906C164.584 21.5199 165.409 21.8659 166.519 21.6378C167.14 21.5041 167.533 21.0715 167.683 20.4816C167.863 19.7659 167.981 19.0265 168.084 18.2872C168.351 16.368 168.595 14.4488 168.855 12.5297C169.13 10.469 169.397 8.40822 169.665 6.33961C169.83 5.08115 169.987 3.82268 170.152 2.56422C170.16 2.48556 170.2 2.41477 170.223 2.33612C172.598 2.33612 174.974 2.33612 177.404 2.33612C177.333 2.91816 177.271 3.5002 177.192 4.07438C176.885 6.41827 176.578 8.77002 176.264 11.1139C175.965 13.3949 175.642 15.6759 175.351 17.9568C175.147 19.5928 174.879 21.2131 174.297 22.7705C172.992 26.2863 170.412 28.1032 166.731 28.4414C165.056 28.5987 163.388 28.5751 161.744 28.1268C158.999 27.3717 157.819 25.5391 157.465 23.0929C157.206 21.3075 157.418 19.5456 157.654 17.7759C157.937 15.6601 158.213 13.5522 158.488 11.4364C158.763 9.35993 159.038 7.29133 159.314 5.21486C159.463 4.27101 159.581 3.32716 159.715 2.35185Z" fill="#056734"/>
<path d="M7.88891 2.32815C6.52623 2.33012 5.16355 2.33599 3.7989 2.33599H3.38996C2.25734 10.9171 1.13262 19.4591 0 28.0324H7.18886C7.61359 24.8311 8.03842 21.6378 8.46315 18.4444H8.54964C9.171 21.6299 9.79231 24.8153 10.4137 28.0165H18.0353C16.8397 24.2176 15.652 20.45 14.4644 16.6589C14.6059 16.5881 14.724 16.533 14.8498 16.4937C16.3049 15.8094 17.5791 14.8971 18.4679 13.5207C19.4589 11.9791 19.7892 10.2643 19.6949 8.46317C19.5926 6.53614 18.7982 4.96306 17.2173 3.82258C15.652 2.69782 13.8509 2.35955 11.9789 2.34382C10.6143 2.32809 9.25159 2.32619 7.88891 2.32815ZM10.3759 7.68907C11.504 7.70133 12.267 8.47982 12.3014 9.69798C12.325 10.6654 12.2149 11.6015 11.7273 12.4589C11.6787 12.5418 11.6229 12.6206 11.5637 12.6973C11.5339 12.7359 11.5032 12.7739 11.4709 12.8108C10.9021 13.4784 9.9407 13.8602 9.07656 13.7252C9.33612 11.7195 9.60354 9.72157 9.8631 7.73163C9.91943 7.72213 9.97493 7.715 10.0299 7.70889C10.1485 7.69475 10.2641 7.68786 10.3759 7.68907Z" fill="#94C120"/>
<path d="M126.114 2.32812C125.776 2.32025 125.626 2.40683 125.508 2.74505C122.755 10.6183 119.987 18.4915 117.226 26.3648C117.037 26.9153 116.848 27.466 116.652 28.048C118.846 28.048 120.978 28.0322 123.117 28.0558C123.542 28.0637 123.723 27.9458 123.825 27.5211C124.085 26.4357 124.407 25.3581 124.706 24.2963H128.961V28.0165H135.985C135.246 19.4432 134.506 10.9093 133.759 2.32812C133.562 2.32812 133.413 2.32809 133.271 2.33595C130.888 2.33595 128.497 2.34385 126.114 2.32812ZM128.678 9.85525C128.702 9.85525 128.725 9.85541 128.749 9.86324C128.812 12.9072 128.875 15.9511 128.93 19.0264H126.114C126.971 15.9432 127.829 12.8992 128.678 9.85525Z" fill="#056734"/>
<path d="M63.2811 9.49431C62.0083 9.5188 60.6974 10.0434 59.7219 10.988C58.5263 12.1363 57.7949 13.5522 57.2758 15.0938C56.5836 17.1703 56.2611 19.3174 56.214 21.4961C56.1825 22.8726 56.3005 24.2411 56.8039 25.5468C57.4174 27.1513 58.4555 28.2762 60.241 28.5043C61.7354 28.6931 63.0647 28.2448 64.213 27.2852C64.622 26.9391 65.0075 26.5615 65.4401 26.1682C65.3536 26.8053 65.2828 27.3952 65.2042 28.0166H71.7403C72.5347 22.0153 73.3212 16.0218 74.1156 10.0126H67.5873C67.4929 10.6261 67.4143 11.2239 67.3042 11.8925C67.139 11.6565 67.0289 11.4992 66.9109 11.3419C66.4468 10.7284 65.9041 10.2093 65.1962 9.87897C64.6041 9.6059 63.9478 9.48147 63.2811 9.49431ZM65.1066 15.1218C65.2498 15.1182 65.39 15.147 65.5202 15.2063C65.8016 15.3305 66.0367 15.5991 66.1559 15.9983C66.2812 16.4118 66.3215 16.8478 66.3566 17.1482C66.3658 17.2224 66.3747 17.2954 66.384 17.3511C66.3119 18.5287 66.23 19.5409 65.9747 20.4827C65.8978 20.7763 65.8054 21.0637 65.6918 21.3468C65.5266 21.7322 65.3142 22.1254 65.031 22.44C64.502 23.0244 63.7997 23.017 63.3871 22.5269C63.2685 22.3892 63.173 22.2127 63.1119 21.9995C62.9781 21.5433 62.9388 21.0479 62.9467 20.5681C62.9546 19.2703 63.1276 17.9882 63.5759 16.7612C63.7254 16.3522 63.9377 15.9354 64.213 15.6051C64.4782 15.2855 64.7994 15.1295 65.1066 15.1218Z" fill="#94C120"/>
<path d="M109.672 9.49927C109.587 9.49927 109.501 9.49998 109.416 9.50142C106.553 9.54075 104.201 10.6576 102.596 13.0409C100.441 16.2421 99.8985 19.8288 100.504 23.5885C100.748 25.075 101.472 26.3491 102.706 27.2772C103.926 28.1896 105.326 28.4885 106.804 28.5279C110.792 28.6301 113.985 26.5852 115.354 23.0457C115.519 22.6289 115.637 22.1962 115.794 21.7165C113.946 21.7165 112.192 21.7086 110.438 21.7243C110.352 21.7243 110.241 21.858 110.186 21.9524C109.958 22.33 109.785 22.7547 109.51 23.0929C109.038 23.6671 108.393 23.8402 107.669 23.6671C106.993 23.5098 106.694 22.9907 106.663 22.3693C106.616 21.5828 106.671 20.7805 106.71 19.9861C106.71 19.9153 106.93 19.7973 107.048 19.7973C108.055 19.7815 109.07 19.7894 110.076 19.7894H116.235C116.266 19.695 116.298 19.64 116.314 19.585C116.62 17.8782 116.785 16.1556 116.479 14.4331C116.14 12.5376 115.228 11.0352 113.403 10.2093C112.216 9.67102 110.953 9.49921 109.672 9.49927ZM109.564 13.6725C110.18 13.6755 110.731 14.0964 110.879 14.7477C111.004 15.3219 110.965 15.9354 110.981 16.5331C110.981 16.5332 110.981 16.5334 110.981 16.5334C110.981 16.5359 110.981 16.5385 110.981 16.541C110.981 16.6039 110.839 16.7298 110.761 16.7298H107.032C107.123 16.5351 107.207 16.3448 107.288 16.1589C107.532 15.6011 107.75 15.082 108.039 14.5983C108.259 14.2522 108.653 13.9218 109.038 13.7724C109.214 13.7036 109.391 13.6717 109.564 13.6725Z" fill="#94C120"/>
<path d="M27.6389 9.50137C24.9804 9.5171 22.7467 10.5554 21.1736 12.7184C18.7983 15.9746 18.2083 19.6871 18.8611 23.5805C19.2623 25.9401 20.6781 27.5762 23.0613 28.229C24.3827 28.5908 25.7355 28.6301 27.0727 28.3942C30.7301 27.7492 32.9875 25.5312 34.0336 22.0232C34.0571 21.9288 34.0571 21.8266 34.0729 21.7007C32.2874 21.7007 30.5413 21.7007 28.8031 21.7164C28.7008 21.7243 28.5513 21.8816 28.5041 21.9995C28.2839 22.5422 28.0086 23.0457 27.5209 23.3918C26.5535 24.0761 25.3187 23.7221 25.0513 22.6603C24.8154 21.7243 24.949 20.7725 25.0748 19.7972H34.6235C34.9695 17.8545 35.174 15.9432 34.7493 14.0161C34.2616 11.8296 32.9323 10.3745 30.7458 9.84748C29.739 9.60365 28.6771 9.4935 27.6389 9.50137ZM27.7606 13.6917C27.9266 13.6863 28.1011 13.7075 28.284 13.7567C29.0155 13.9533 29.2593 14.5432 29.338 15.2118C29.3852 15.6286 29.3616 16.0454 29.338 16.4623C29.336 16.4857 29.3252 16.5131 29.3091 16.5409C29.309 16.5411 29.3089 16.5413 29.3088 16.5415C29.2649 16.6279 29.161 16.7219 29.094 16.7219C27.9063 16.7376 26.7188 16.7297 25.4918 16.7297C25.5203 16.6235 25.5493 16.5186 25.5795 16.4146C25.6096 16.3107 25.6408 16.2079 25.6733 16.1063C25.8684 15.4973 26.1131 14.9325 26.4906 14.4253C26.6604 14.1959 26.8517 14.0175 27.0639 13.8948C27.2763 13.7696 27.5087 13.6999 27.7606 13.6917Z" fill="#94C120"/>
<path d="M176.429 28.0401C177.562 19.4432 178.686 10.9014 179.811 2.34381C182.202 2.34381 184.57 2.34381 187 2.34381C186.929 2.92585 186.866 3.49216 186.795 4.0506C186.544 5.96976 186.292 7.88892 186.033 9.80808C185.781 11.7036 185.529 13.5913 185.277 15.4869C185.002 17.5634 184.735 19.6398 184.459 21.7084C184.192 23.7299 183.932 25.7513 183.657 27.7727C183.641 27.8671 183.492 28.0244 183.406 28.0244C181.101 28.0401 178.796 28.0401 176.429 28.0401Z" fill="#056734"/>
<path d="M46.7598 28.0087C47.9947 18.6646 49.2217 9.3441 50.4565 0C52.6274 0 54.7825 0 56.9927 0C56.9219 0.574175 56.859 1.13262 56.7882 1.6832C56.4814 4.01922 56.1747 6.34738 55.8679 8.68341C55.5612 10.9801 55.2544 13.2689 54.9477 15.5656C54.6173 18.0432 54.3027 20.5208 53.9802 22.9985C53.7757 24.5951 53.5555 26.1839 53.3589 27.7806C53.3274 28.0559 53.1465 28.0323 52.9656 28.0323C51.015 28.0323 49.0565 28.0323 47.1059 28.0323C46.9879 28.0402 46.8856 28.0244 46.7598 28.0087Z" fill="#94C120"/>
<path d="M45.9418 22.1332C45.8317 23.0063 45.7294 23.8479 45.6193 24.6816C45.5013 25.6176 45.3755 26.5457 45.2418 27.4817C45.226 27.6075 45.1238 27.7884 45.0137 27.8356C42.5361 28.8503 40.0899 28.9368 37.809 27.3401C36.4797 26.412 35.7797 24.9962 35.528 23.4389C34.9538 19.7736 35.4887 16.2892 37.5809 13.1588C38.8472 11.2554 40.6012 9.98117 42.9136 9.61149C44.4945 9.3598 46.044 9.46205 47.5227 10.2093C47.2789 12.0419 47.0351 13.8588 46.7991 15.6836C46.453 15.5735 46.1542 15.4476 45.8395 15.3926C44.88 15.2195 44.1249 15.5971 43.6136 16.3836C42.6776 17.823 42.4338 19.4197 42.7327 21.0793C42.9215 22.1332 43.7945 22.6445 44.8485 22.4242C45.2024 22.3535 45.5485 22.2433 45.9418 22.1332Z" fill="#94C120"/>
</svg>
