<svg width="66" height="66" viewBox="0 0 66 66" fill="none" xmlns="http://www.w3.org/2000/svg">
<path fill-rule="evenodd" clip-rule="evenodd" d="M15.1205 57.8801C15.6039 57.3967 16.3871 57.3967 16.8705 57.8801C17.3539 58.3635 17.3539 59.1467 16.8705 59.6301L10.8631 65.6374C10.3797 66.1209 9.59653 66.1209 9.11313 65.6374C8.62974 65.154 8.6297 64.3708 9.11313 63.8874L15.1205 57.8801ZM21.1665 21.8775L12.7131 21.7486L4.1433 35.8874L13.3087 31.9556C15.9193 28.2784 18.5399 24.92 21.1665 21.8775ZM13.6605 34.4917L14.724 36.0741L14.2954 37.8853L11.2821 40.8986C10.5505 41.6334 10.1831 42.5971 10.1831 43.5607C10.1831 44.5212 10.5505 45.4848 11.2821 46.2196L11.2853 46.2228L11.2821 46.2261L19.7677 54.7117C19.7935 54.7375 19.8192 54.7632 19.8482 54.7858C20.5702 55.469 21.5016 55.8139 22.4297 55.8139C23.3902 55.8139 24.3537 55.4465 25.0886 54.7149L25.0918 54.7117L25.0951 54.7149L27.393 52.417C27.422 52.388 27.451 52.3558 27.4768 52.3268C27.6347 52.1527 27.7668 51.9594 27.87 51.7595L29.9229 51.2729L31.5021 52.3365L27.7443 60.9805C27.5219 61.4929 27.5058 62.0279 27.6508 62.5242C27.7927 63.0109 28.0891 63.4524 28.492 63.7747C28.8981 64.1002 29.375 64.2839 29.8649 64.3161H29.8682C30.3516 64.3483 30.8479 64.2291 31.2959 63.9584L45.4058 55.4051C45.4349 55.389 45.4639 55.3761 45.4929 55.3568C45.8409 55.1473 46.1213 54.8669 46.3211 54.5317C46.3405 54.5027 46.3566 54.4737 46.3759 54.4447C46.5757 54.0805 46.6789 53.668 46.6724 53.2264L46.5145 42.7071C51.9997 37.6827 56.3251 32.6292 59.49 27.5535C64.8753 18.9161 66.9186 10.2052 65.6199 1.42259C65.5361 0.858595 65.0881 0.442846 64.5499 0.375192C55.7771 -0.917161 47.0754 1.12933 38.4478 6.51148C33.3816 9.66984 28.341 13.982 23.3264 19.4515L12.7394 19.2904C12.2946 19.2839 11.8789 19.3871 11.5147 19.5869C11.4857 19.603 11.4535 19.6223 11.4277 19.6417C11.0989 19.8415 10.8186 20.1219 10.6091 20.4699L2.00384 34.6599C1.73312 35.1079 1.61387 35.601 1.64611 36.0877V36.0909C1.67833 36.5807 1.85881 37.0577 2.18754 37.4638C2.51305 37.8667 2.95135 38.1632 3.43798 38.305C3.93108 38.45 4.46607 38.4339 4.97529 38.2179L13.6605 34.4917ZM63.2986 2.69519C63.8013 6.90103 63.4726 11.1008 62.3156 15.2937C60.9974 15.1776 59.6922 14.8586 58.4514 14.3332C56.9883 13.7144 55.6089 12.7991 54.4003 11.5938C53.1917 10.3853 52.2797 9.00589 51.6609 7.54267C51.1355 6.30188 50.8165 4.99987 50.7004 3.67848C54.8933 2.52473 59.0925 2.19562 63.2986 2.69519ZM48.3025 4.43554C48.4733 5.82459 48.8375 7.19433 49.3886 8.50277C50.1363 10.2689 51.2257 11.919 52.6501 13.3467C54.0779 14.7745 55.7247 15.8605 57.494 16.6082C58.8025 17.1625 60.1722 17.5235 61.5613 17.6943C60.5557 20.5465 59.1667 23.3987 57.3941 26.2442C52.36 34.3175 44.2355 42.3648 33.0231 50.3835L30.925 48.9719C30.6381 48.7463 30.2546 48.6496 29.8744 48.7398L27.873 49.2136L23.203 44.5437L31.3085 36.4383C31.7919 35.9548 31.7919 35.1716 31.3085 34.6882C30.825 34.2048 30.0418 34.2048 29.5584 34.6882L21.453 42.7937L16.7831 38.1237L17.2569 36.1191H17.2536C17.331 35.7968 17.2762 35.4455 17.0796 35.149L15.6165 32.9704C23.6349 21.758 31.6826 13.633 39.7557 8.59936C42.6014 6.82683 45.4506 5.43789 48.3025 4.43554ZM44.0838 44.8628L44.2095 53.242C44.1837 53.2581 44.1579 53.2775 44.1321 53.2936L30.0709 61.8147L34.0382 52.6905C37.7026 50.0897 41.0509 47.4798 44.0838 44.8628ZM25.6655 50.5093C25.6784 50.5286 25.6848 50.5512 25.6848 50.577H25.6784C25.6784 50.6028 25.6719 50.6318 25.659 50.6511L23.345 52.9651L23.3482 52.9683C23.1001 53.2165 22.7681 53.3422 22.4329 53.3422C22.1203 53.3422 21.8077 53.2326 21.566 53.0134L21.5208 52.9683L13.0319 44.4761L13.0287 44.4793C12.7806 44.2312 12.6581 43.8992 12.6581 43.564C12.6581 43.2321 12.7838 42.9001 13.0319 42.6519L15.4168 40.2671L20.5734 45.4236L25.6655 50.5093ZM48.0284 17.9686C49.5882 19.5317 50.3713 21.5814 50.3713 23.6344H50.3778C50.3778 25.6841 49.5946 27.7371 48.0315 29.3001C46.4652 30.8632 44.4155 31.6464 42.3657 31.6464V31.64C40.3128 31.64 38.263 30.86 36.7 29.297C35.1369 27.734 34.3537 25.681 34.3537 23.6312C34.3537 21.5847 35.1369 19.535 36.7 17.9719L36.7032 17.9687L36.7 17.9655C38.263 16.4024 40.316 15.6192 42.3657 15.6192C44.4155 15.6192 46.4653 16.4023 48.0284 17.9686ZM47.9059 23.6344H47.8994C47.8994 25.0525 47.358 26.4705 46.2784 27.5501C45.1987 28.6298 43.7807 29.1712 42.3626 29.1712V29.1776C40.9478 29.1776 39.533 28.6362 38.4469 27.5501C37.3672 26.4704 36.8258 25.0524 36.8258 23.6343C36.8258 22.2162 37.3673 20.7982 38.4437 19.7153L38.4469 19.7186C39.5265 18.6389 40.9445 18.0975 42.3626 18.0975C43.7807 18.0975 45.1987 18.6389 46.2784 19.7186C47.3645 20.8014 47.9059 22.2195 47.9059 23.6344ZM10.7433 53.5035L0.765194 63.4817C0.281766 63.9651 0.281766 64.7483 0.765194 65.2317C1.24862 65.7151 2.03181 65.7151 2.5152 65.2317L12.4933 55.2536C12.9767 54.7701 12.9767 53.9869 12.4933 53.5035C12.0099 53.0201 11.2267 53.0201 10.7433 53.5035ZM6.3699 49.1269C6.85333 48.6435 7.63651 48.6435 8.11991 49.1269C8.60334 49.6103 8.60334 50.3935 8.11991 50.8769L2.11258 56.8843C1.62915 57.3677 0.845966 57.3677 0.362571 56.8843C-0.120857 56.4008 -0.120857 55.6176 0.362571 55.1343L6.3699 49.1269Z" fill="#15E9BF"/>
</svg>
