<svg width="152" height="58" viewBox="0 0 152 58" fill="none" xmlns="http://www.w3.org/2000/svg">
<path d="M16.6259 57.0282C15.7702 56.8176 15.0107 56.197 14.5698 55.3482L14.3254 54.8777L14.2732 48.8129L14.2209 42.7482L8.10386 42.6959L1.98685 42.6436L1.50451 42.3601C0.982162 42.053 0.478208 41.5317 0.185065 40.9953C0.0150253 40.6842 0.00012207 40.2272 0.00012207 35.3241V29.9913H13.4889H26.9777V43.5324V57.0735L21.9586 57.0895C19.1981 57.0982 16.7984 57.0707 16.6259 57.0282Z" fill="#4ACCD5"/>
<path d="M31.3698 42.264C31.3397 42.1852 31.3273 39.4858 31.3422 36.2652L31.3693 30.4096L34.3494 30.3448C37.4265 30.278 37.7598 30.2363 39.1945 29.7379C42.8215 28.4779 45.2494 24.5668 44.9778 20.4215C44.6979 16.1511 42.18 13.0984 38.1954 12.1988C37.1894 11.9717 35.0759 11.9673 34.073 12.1903C30.4647 12.9924 27.7686 15.6021 26.8633 19.1689C26.7314 19.6886 26.6789 20.5315 26.6404 22.7502C26.5952 25.3514 26.5721 25.6524 26.4178 25.6566C25.4609 25.6826 14.7419 25.6328 14.7113 25.6021C14.6198 25.5107 14.7033 19.2608 14.8069 18.437C15.6773 11.5209 20.0909 5.36934 26.4284 2.23948C29.5765 0.684792 32.4764 0.0115849 36.0747 0.000145615C39.6011 -0.0110648 42.5741 0.624714 45.4855 2.01262C51.3654 4.81561 55.2915 9.93394 56.5665 16.4585C58.0388 23.9926 55.7747 31.3741 50.4227 36.4884C47.3144 39.4587 43.6468 41.3017 39.2884 42.0836C38.2703 42.2663 37.4967 42.3125 34.7431 42.3555C31.995 42.3983 31.4152 42.3826 31.3698 42.264Z" fill="#4ACCD5"/>
<path d="M76.7502 48.7663C76.6352 48.7192 76.447 48.5761 76.3319 48.4483C76.1262 48.2196 76.1228 48.0686 76.1228 39.1931V30.1705L76.6572 29.5581C77.7859 28.2646 79.7778 27.0655 81.6124 26.5752C82.3425 26.38 82.7721 26.3375 84.0174 26.3372C85.7983 26.3368 86.4136 26.4715 87.834 27.173C91.3169 28.893 93.0559 32.9351 92.0247 36.9136C91.2557 39.8807 88.7926 42.0905 85.6423 42.6399C85.0844 42.7372 84.0905 42.8004 83.1186 42.8004C81.6404 42.8004 81.5068 42.7846 81.407 42.5982C81.3474 42.4869 81.2987 41.8486 81.2987 41.1797C81.2987 40.5107 81.3474 39.8724 81.407 39.7612C81.5065 39.5752 81.6398 39.5589 83.061 39.5589C85.1829 39.5589 86.0331 39.2973 87.0734 38.3242C88.9853 36.5359 89.1079 33.153 87.3308 31.2219C86.3016 30.1035 84.8721 29.6316 83.1534 29.8428C82.1548 29.9654 80.8711 30.5876 80.269 31.2409L79.8348 31.7119V40.163C79.8348 46.5967 79.8049 48.6441 79.7094 48.7397C79.5646 48.8844 77.0931 48.9066 76.7502 48.7663Z" fill="black"/>
<path d="M68.0408 42.6409C67.1853 42.4551 66.4025 42.0847 65.8522 41.6053C65.2676 41.0958 64.7065 39.948 64.5709 38.9838C64.4586 38.185 64.4202 23.9004 64.5296 23.6152C64.612 23.4006 67.8863 21.7498 68.0812 21.8245C68.1949 21.8682 68.2299 22.3556 68.2523 24.21L68.2804 26.5406L70.5009 26.5688C73.1169 26.6021 72.852 26.3891 72.8068 28.4228L72.7767 29.7821L70.5285 29.8396C69.2921 29.8713 68.2662 29.9066 68.2488 29.9181C68.2314 29.9295 68.2314 31.8329 68.2488 34.1477C68.2789 38.1506 68.2908 38.3743 68.4919 38.7224C68.6172 38.9391 68.8927 39.1843 69.1676 39.3236C69.6043 39.5449 69.7593 39.5589 71.7846 39.5589C73.3195 39.5589 73.9734 39.5949 74.0628 39.6843C74.1476 39.7692 74.1883 40.2536 74.1883 41.1796C74.1883 42.1056 74.1476 42.5901 74.0628 42.6749C73.8777 42.86 68.921 42.832 68.0408 42.6409Z" fill="black"/>
<path d="M104.729 42.5297L104.407 42.259V31.6775V21.096L106.093 20.2307C107.02 19.7547 107.844 19.3902 107.923 19.4207C108.044 19.4673 108.067 21.3118 108.067 31.0748C108.067 41.5548 108.051 42.6796 107.902 42.737C107.811 42.7719 107.132 42.8004 106.394 42.8004C105.102 42.8004 105.039 42.7902 104.729 42.5297Z" fill="black"/>
<path d="M112.073 42.6949C111.495 42.4621 111.514 42.7625 111.543 34.3742L111.57 26.6453H113.348H115.125L115.152 34.6379C115.173 40.9628 115.151 42.6479 115.048 42.7139C114.87 42.8267 112.36 42.8107 112.073 42.6949Z" fill="black"/>
<path d="M119.163 42.6545C118.629 42.3588 118.636 42.4456 118.632 35.9724C118.629 30.9378 118.653 29.8814 118.777 29.6462C118.973 29.2751 120.118 28.1733 120.745 27.7532C121.518 27.2344 122.886 26.6167 123.804 26.372C124.899 26.08 126.911 26.0538 127.987 26.3174C130.735 26.9906 132.876 29.1155 133.58 31.8701C133.776 32.6359 133.79 33.0266 133.79 37.6823C133.79 42.1371 133.772 42.6803 133.625 42.7369C133.302 42.8608 130.388 42.8072 130.256 42.6749C130.162 42.5811 130.13 41.3715 130.13 37.876C130.13 33.5168 130.116 33.1575 129.924 32.5335C129.389 30.8011 128.089 29.7618 126.319 29.6518C124.94 29.566 123.786 29.9595 122.798 30.852L122.393 31.2181V36.807C122.393 40.4596 122.355 42.466 122.284 42.5981C122.186 42.7828 122.056 42.8001 120.794 42.7967C119.849 42.7942 119.334 42.7492 119.163 42.6545Z" fill="black"/>
<path d="M137.587 42.6948C137.002 42.4592 137.028 43.0175 137.057 31.6034L137.084 21.1033L138.829 20.2171C139.789 19.7296 140.613 19.3689 140.659 19.4153C140.706 19.4618 140.767 22.6133 140.796 26.4186L140.848 33.3373L143.704 29.9651L146.561 26.5929H148.645C150.378 26.5929 150.73 26.618 150.73 26.7416C150.73 26.8234 149.292 28.5226 147.535 30.5177C145.778 32.5127 144.354 34.2043 144.372 34.2769C144.389 34.3494 145.998 36.2093 147.946 38.41C149.895 40.6106 151.495 42.487 151.502 42.5796C151.512 42.7285 151.268 42.7514 149.393 42.7764L147.273 42.8047L147.041 42.5507C146.913 42.4109 145.491 40.6954 143.881 38.7383C142.27 36.7813 140.917 35.1772 140.874 35.1736C140.831 35.1701 140.796 36.7936 140.796 38.7815C140.796 41.073 140.756 42.4699 140.688 42.5981C140.589 42.783 140.461 42.7998 139.198 42.7938C138.438 42.7901 137.713 42.7456 137.587 42.6948Z" fill="black"/>
<path d="M96.4347 36.3436C96.1706 36.0469 94.7771 33.0449 94.8344 32.8958C94.8763 32.7866 95.5329 32.7648 98.1048 32.7869L101.323 32.8145L101.352 34.5843C101.374 35.9302 101.348 36.3744 101.247 36.4387C101.174 36.4853 100.098 36.5241 98.8557 36.525C96.8357 36.5264 96.5804 36.5073 96.4347 36.3436Z" fill="black"/>
<path d="M111.445 22.8811C111.089 22.6315 110.858 21.8872 110.911 21.1587C110.967 20.3759 111.346 19.787 112.088 19.3282C112.533 19.053 112.695 19.0124 113.34 19.0151C114.161 19.0186 114.699 19.2345 115.198 19.7605C115.969 20.5727 116.02 22.0401 115.306 22.8548C115.165 23.0153 114.932 23.0378 113.407 23.0378C112.032 23.0378 111.622 23.005 111.445 22.8811Z" fill="black"/>
</svg>
