<svg width="185" height="36" viewBox="0 0 185 36" fill="none" xmlns="http://www.w3.org/2000/svg">
<g clip-path="url(#clip0_1_273)">
<path d="M149.938 0H143.224V34.6871H149.938V0Z" fill="#211F20"/>
<path d="M184.625 0H149.938V34.6871H184.625V0Z" fill="#FDBA14"/>
<path d="M83.3607 20.7005L87.8367 16.7841C85.1513 11.8608 79.258 10.63 76.6473 10.63C67.248 10.63 64.8985 19.2085 64.8985 23.4978C65.3461 33.3445 73.2907 35.8061 77.2067 35.8061C83.0253 35.8061 86.3447 32.4493 87.2773 30.7709L82.8013 26.2951C81.0113 28.9806 78.326 29.279 77.2067 29.0925C72.2833 29.0925 71.0527 24.9897 71.0527 22.9383C71.0527 18.015 75.1553 16.7841 77.2067 16.7841C80.7873 16.7841 82.8013 19.395 83.3607 20.7005Z" fill="#211F20"/>
<path fill-rule="evenodd" clip-rule="evenodd" d="M140.987 25.175H123.083C123.456 26.6669 125.209 29.6508 129.237 29.6508C130.543 29.8373 133.489 29.6508 134.832 27.4129L138.189 31.8887C137.443 33.1941 134.609 35.8049 129.237 35.8049C125.135 35.8049 116.817 33.3433 116.37 23.4966C116.37 19.0209 118.943 10.1813 129.237 10.6288C133.34 10.6288 141.434 13.5381 140.987 25.175ZM134.273 21.2599H123.083C123.27 19.7679 124.65 16.7841 128.678 16.7841C130.357 16.7841 133.825 17.6793 134.273 21.2599Z" fill="#211F20"/>
<path d="M24.6167 0.559509H-1.52588e-05V7.27317H8.95152V35.2466H15.6651V7.27317H24.6167V0.559509Z" fill="#211F20"/>
<path d="M35.8061 17.9029L37.4845 11.7488L33.5682 11.1893C30.4351 11.1893 28.5329 12.3083 27.9735 12.8677L26.2951 11.1893H22.3788V34.6871H28.5329V19.5814C30.3233 16.4483 34.1277 17.157 35.8061 17.9029Z" fill="#211F20"/>
<path fill-rule="evenodd" clip-rule="evenodd" d="M57.6255 11.1896L56.5066 13.9869C55.7607 13.0545 53.3736 11.1896 49.793 11.1896C45.8767 11.0031 37.9322 13.0918 37.4847 22.9384C37.2981 27.0411 39.3869 35.3584 49.2335 35.806C50.912 35.806 54.6046 35.1346 55.9473 32.4492L57.6255 34.6871H62.1014V11.1896H57.6255ZM49.7928 29.0924C53.1917 29.0924 55.9469 26.3371 55.9469 22.9382C55.9469 19.5394 53.1917 16.784 49.7928 16.784C46.3939 16.784 43.6386 19.5394 43.6386 22.9382C43.6386 26.3371 46.3939 29.0924 49.7928 29.0924Z" fill="#211F20"/>
<path fill-rule="evenodd" clip-rule="evenodd" d="M90.0746 0.559448H96.2286V13.9867C96.9746 13.0542 99.474 11.1894 103.502 11.1894C107.045 11.1894 114.132 13.5392 114.132 22.9382C114.318 27.041 112.341 35.2466 102.943 35.2466C101.451 35.433 97.9073 35.1346 95.6693 32.4492L94.5506 34.6871H90.0746V0.559448ZM102.383 29.0924C105.782 29.0924 108.537 26.3371 108.537 22.9382C108.537 19.5394 105.782 16.784 102.383 16.784C98.984 16.784 96.2286 19.5394 96.2286 22.9382C96.2286 26.3371 98.984 29.0924 102.383 29.0924Z" fill="#211F20"/>
</g>
<defs>
<clipPath id="clip0_1_273">
<rect width="184.667" height="36" fill="white"/>
</clipPath>
</defs>
</svg>
