<svg width="22" height="22" viewBox="0 0 22 22" fill="none" xmlns="http://www.w3.org/2000/svg">
<path d="M4.10339 6.83851C3.98247 6.95943 3.91454 7.12343 3.91454 7.29444C3.91454 7.46545 3.98247 7.62945 4.10339 7.75037C4.22431 7.87129 4.38832 7.93922 4.55933 7.93922C4.73033 7.93922 4.89434 7.87129 5.01526 7.75037L10.9424 1.82324L16.8695 7.75037C16.9904 7.87129 17.1544 7.93923 17.3254 7.93923C17.4965 7.93923 17.6605 7.87129 17.7814 7.75037C17.9023 7.62945 17.9702 7.46545 17.9702 7.29444C17.9702 7.12343 17.9023 6.95943 17.7814 6.83851L11.3983 0.455446C11.2774 0.334541 11.1134 0.26662 10.9424 0.266619C10.7714 0.266619 10.6074 0.334541 10.4865 0.455446L4.10339 6.83851Z" fill="#F5FFFD"/>
<path d="M10.2975 1.82407L10.2975 20.9643L10.2975 20.9733C10.2975 21.1443 10.3654 21.3083 10.4863 21.4292C10.6072 21.5501 10.7712 21.618 10.9422 21.618C11.1132 21.618 11.2773 21.5501 11.3982 21.4292C11.5191 21.3082 11.587 21.1442 11.587 20.9732L11.587 1.82407L10.2975 1.82407Z" fill="#F5FFFD"/>
</svg>
