<svg width="162" height="54" viewBox="0 0 162 54" fill="none" xmlns="http://www.w3.org/2000/svg">
<path d="M26.6192 0V42.3168C26.6192 45.8794 25.5366 48.5416 23.5391 50.4794C21.2431 52.7092 16.7705 53.4547 11.5396 53.2998C10.649 53.2739 9.78415 53.2046 8.57243 53.0819C7.35909 52.9577 5.61007 52.5592 4.47257 52.3365C3.33345 52.1155 0.692183 51.5152 0 51.2184L1.49086 42.6475C4.85336 43.2445 8.04643 43.7479 10.2924 43.7237C13.6565 43.7237 15.3394 42.3394 15.3394 39.569V0.00161506H26.6192V0Z" fill="#E8E8E8"/>
<path d="M43.5285 0.135742C46.1504 0.135742 48.8353 0.14865 51.5798 0.171239C54.326 0.197055 57.0221 0.271276 59.6682 0.3939C62.3143 0.518138 64.7765 0.703691 67.0515 0.950553L66.4577 9.11316H47.9043C46.5683 9.11316 45.5535 9.43424 44.8613 10.078C44.1675 10.7218 43.8222 11.6608 43.8222 12.8984V53.3193H32.4681V10.5992C32.4681 7.43352 33.4814 4.89713 35.5111 2.99322C37.5393 1.08931 40.2112 0.135742 43.5269 0.135742H43.5285ZM63.455 26.7291C63.455 27.6327 63.2824 28.4943 62.9371 29.3172C62.5918 30.14 62.1126 30.8435 61.5043 31.4276C60.8928 32.0117 60.191 32.4764 59.3939 32.8216C58.5985 33.1669 57.7223 33.338 56.7672 33.338C54.9617 33.338 53.4224 32.7006 52.1494 31.4276C50.8763 30.153 50.239 28.5879 50.239 26.7308C50.239 24.8736 50.8763 23.3069 52.1494 22.0339C53.424 20.7609 54.9617 20.1236 56.7672 20.1236C57.7223 20.1236 58.5985 20.2962 59.3939 20.6415C60.1894 20.9868 60.8928 21.466 61.5043 22.0759C62.1142 22.6858 62.5918 23.3892 62.9371 24.1847C63.2808 24.9801 63.455 25.8304 63.455 26.7324V26.7291Z" fill="#E8E8E8"/>
<path d="M91.9829 0.135742C96.0392 0.135742 99.4775 0.569772 102.298 1.4346C105.118 2.30104 107.382 3.73542 109.089 5.73937C110.796 7.74331 112.045 10.4653 112.837 13.902C113.628 17.3419 114.025 21.6338 114.025 26.7775C114.025 31.9213 113.628 36.2148 112.837 39.6531C112.045 43.0915 110.796 45.8118 109.089 47.8157C107.382 49.8197 105.118 51.2541 102.298 52.1205C99.4775 52.9853 96.0392 53.4194 91.9829 53.4194C87.9266 53.4194 84.4883 52.9853 81.6679 52.1205C78.8475 51.2557 76.5709 49.8197 74.8396 47.8157C73.1084 45.8118 71.8466 43.0915 71.0544 39.6531C70.2622 36.2148 69.8669 31.9246 69.8669 26.7775C69.8669 21.6305 70.2622 17.3419 71.0544 13.902C71.845 10.4636 73.1068 7.74331 74.8396 5.73937C76.5709 3.73704 78.8475 2.30104 81.6679 1.4346C84.4883 0.569772 87.9266 0.135742 91.9829 0.135742ZM91.9829 9.11638C89.3594 9.11638 87.3199 9.63592 85.8597 10.675C84.3995 11.7141 83.3605 13.5067 82.7425 16.056C82.1229 18.6037 81.8147 22.1791 81.8147 26.7792C81.8147 31.3792 82.1229 34.895 82.7425 37.4653C83.3605 40.0388 84.3995 41.8442 85.8597 42.8833C87.3183 43.9224 89.3594 44.4419 91.9829 44.4419C94.6064 44.4419 96.5716 43.9224 98.0302 42.8833C99.4888 41.8442 100.528 40.0388 101.147 37.4653C101.765 34.8934 102.075 31.3308 102.075 26.7792C102.075 22.2275 101.765 18.6037 101.147 16.056C100.528 13.5083 99.4888 11.7157 98.0302 10.675C96.57 9.63592 94.5548 9.11638 91.9829 9.11638Z" fill="#E8E8E8"/>
<path d="M137.007 30.0739L125.574 53.3193H114.025L127.289 26.7775L114.072 0.135742H125.699L137.046 23.3779C138.18 25.7385 138.059 27.9005 137.009 30.0739H137.007Z" fill="#15E9BF"/>
<path d="M139.018 23.3504L150.451 0.10498H162L148.736 26.6468L161.953 53.2886H150.496L138.978 30.0464C137.843 27.6858 137.964 25.5238 139.015 23.3504H139.018Z" fill="#E8E8E8"/>
</svg>
